<svg xmlns="http://www.w3.org/2000/svg" viewBox="0 0 730.23 182.56"  width="180" height="68" fill="#141b48">
<g><g><g><path d="M249.91,120.05c-4.97,0-8.85-1.33-11.53-3.95-2.68-2.62-4.04-6.46-4.04-11.43v-30.88c0-4.97,1.36-8.81,4.04-11.43,2.68-2.62,6.56-3.95,11.53-3.95h10.62c4.91,0,8.77,1.34,11.49,4,2.71,2.65,4.09,6.48,4.09,11.38v4.58c0,1.15-.49,1.64-1.64,1.64h-8.18c-1.08,0-1.54-.49-1.54-1.64v-3.99c0-2.21-.49-3.82-1.46-4.79s-2.58-1.46-4.79-1.46h-6.62c-2.14,0-3.72,.49-4.69,1.46-.97,.97-1.46,2.58-1.46,4.79v29.71c0,2.21,.49,3.82,1.46,4.79s2.55,1.46,4.69,1.46h6.62c2.21,0,3.82-.49,4.79-1.46,.97-.97,1.46-2.58,1.46-4.79v-3.99c0-1.15,.46-1.64,1.54-1.64h8.18c1.15,0,1.64,.49,1.64,1.64v4.58c0,4.9-1.38,8.73-4.09,11.38-2.71,2.65-6.58,4-11.49,4h-10.62Z"/><path d="M260.53,58.92c4.77,0,8.52,1.3,11.14,3.85,2.61,2.55,3.94,6.26,3.94,11.02v4.58c0,.88-.27,1.14-1.14,1.14h-8.18c-.71,0-1.04-.17-1.04-1.14v-3.99c0-2.38-.53-4.06-1.61-5.14-1.08-1.08-2.76-1.61-5.14-1.61h-6.62c-2.28,0-3.98,.54-5.04,1.61-1.08,1.08-1.61,2.76-1.61,5.14v29.71c0,2.38,.53,4.06,1.61,5.14,1.07,1.07,2.76,1.61,5.04,1.61h6.62c2.38,0,4.06-.53,5.14-1.61,1.08-1.08,1.61-2.76,1.61-5.14v-3.99c0-.97,.34-1.14,1.04-1.14h8.18c.88,0,1.14,.27,1.14,1.14v4.58c0,4.76-1.32,8.47-3.94,11.02-2.62,2.56-6.36,3.85-11.14,3.85h-10.62c-4.84,0-8.6-1.28-11.19-3.81-2.58-2.52-3.89-6.24-3.89-11.07v-30.88c0-4.83,1.31-8.55,3.89-11.07,2.59-2.53,6.35-3.81,11.18-3.81h10.62m0-1h-10.62c-5.13,0-9.09,1.36-11.88,4.09-2.79,2.73-4.19,6.66-4.19,11.79v30.88c0,5.13,1.4,9.06,4.19,11.79,2.79,2.73,6.75,4.09,11.88,4.09h10.62c5.07,0,9.01-1.38,11.83-4.14,2.83-2.76,4.24-6.67,4.24-11.74v-4.58c0-1.43-.71-2.14-2.14-2.14h-8.18c-1.36,0-2.04,.72-2.04,2.14v3.99c0,2.08-.44,3.56-1.32,4.43-.88,.88-2.35,1.32-4.43,1.32h-6.62c-2.01,0-3.46-.44-4.33-1.32s-1.31-2.35-1.31-4.43v-29.71c0-2.08,.44-3.56,1.31-4.43,.88-.88,2.32-1.31,4.33-1.31h6.62c2.08,0,3.55,.44,4.43,1.31s1.32,2.35,1.32,4.43v3.99c0,1.43,.68,2.14,2.04,2.14h8.18c1.43,0,2.14-.71,2.14-2.14v-4.58c0-5.07-1.41-8.98-4.24-11.74-2.82-2.76-6.77-4.14-11.83-4.14h0Z"/></g><g><path d="M303.78,120.05c-4.97,0-8.85-1.33-11.53-3.95-2.68-2.62-4.04-6.46-4.04-11.43v-17.92c0-4.97,1.36-8.81,4.04-11.43,2.68-2.62,6.56-3.95,11.53-3.95h8.67c4.91,0,8.77,1.34,11.49,4,2.71,2.65,4.09,6.48,4.09,11.38v17.92c0,4.9-1.38,8.73-4.09,11.38-2.71,2.65-6.58,4-11.49,4h-8.67Zm1.85-39.06c-2.24,0-3.79,.46-4.74,1.41s-1.41,2.5-1.41,4.74v17.14c0,2.24,.46,3.79,1.41,4.74,.95,.95,2.5,1.41,4.74,1.41h4.97c2.23,0,3.8-.46,4.78-1.41,.97-.94,1.47-2.53,1.47-4.74v-17.14c0-2.21-.49-3.8-1.47-4.74-.97-.93-2.58-1.41-4.78-1.41h-4.97Z"/><path d="M312.44,71.87c4.77,0,8.52,1.3,11.14,3.85,2.61,2.55,3.94,6.26,3.94,11.02v17.92c0,4.76-1.32,8.47-3.94,11.02-2.62,2.56-6.36,3.85-11.14,3.85h-8.67c-4.84,0-8.6-1.28-11.19-3.81-2.58-2.52-3.89-6.24-3.89-11.07v-17.92c0-4.83,1.31-8.55,3.89-11.07,2.58-2.53,6.35-3.81,11.18-3.81h8.67m-6.82,39.06h4.97c2.37,0,4.05-.51,5.12-1.55,1.09-1.05,1.62-2.72,1.62-5.1v-17.14c0-2.38-.53-4.05-1.62-5.1-1.08-1.04-2.76-1.55-5.12-1.55h-4.97c-2.38,0-4.04,.51-5.09,1.56-1.05,1.05-1.56,2.71-1.56,5.09v17.14c0,2.38,.51,4.04,1.56,5.09,1.05,1.05,2.71,1.56,5.09,1.56m6.82-40.06h-8.67c-5.13,0-9.09,1.36-11.88,4.09-2.79,2.73-4.19,6.66-4.19,11.79v17.92c0,5.13,1.4,9.06,4.19,11.79,2.79,2.73,6.75,4.09,11.88,4.09h8.67c5.07,0,9.01-1.38,11.83-4.14,2.82-2.76,4.24-6.67,4.24-11.74v-17.92c0-5.06-1.41-8.98-4.24-11.74-2.83-2.76-6.77-4.14-11.83-4.14h0Zm-6.82,39.06c-2.08,0-3.54-.42-4.38-1.27-.84-.84-1.27-2.3-1.27-4.38v-17.14c0-2.08,.42-3.54,1.27-4.38s2.3-1.27,4.38-1.27h4.97c2.08,0,3.55,.42,4.43,1.27,.88,.84,1.32,2.31,1.32,4.38v17.14c0,2.08-.44,3.54-1.32,4.38-.88,.84-2.35,1.27-4.43,1.27h-4.97Z"/></g><g><path d="M343.23,120.05c-1.08,0-1.55-.46-1.55-1.55v-45.59c0-1.08,.43-1.54,1.45-1.54h8.38c1.08,0,1.54,.46,1.54,1.54v45.59c0,.97-.21,1.23-.27,1.28-.11,.1-.41,.26-1.18,.26h-8.38Zm-.1-56.11c-1.03,0-1.45-.42-1.45-1.45v-8.47c0-1.03,.42-1.45,1.45-1.45h8.47c1.03,0,1.45,.39,1.45,1.35v8.57c0,1.03-.42,1.45-1.45,1.45h-8.47Z"/><path d="M351.6,53.07c.85,0,.95,.27,.95,.85v8.57c0,.74-.2,.95-.95,.95h-8.47c-.74,0-.95-.2-.95-.95v-8.47c0-.74,.2-.95,.95-.95h8.47m-.1,18.8c.81,0,1.04,.23,1.04,1.04v45.59c0,.68-.11,.91-.11,.91-.03,.02-.22,.13-.84,.13h-8.38c-.81,0-1.05-.23-1.05-1.05v-45.59c0-.9,.28-1.04,.95-1.04h8.38m.1-19.8h-8.47c-1.3,0-1.95,.65-1.95,1.95v8.47c0,1.3,.65,1.95,1.95,1.95h8.47c1.3,0,1.95-.65,1.95-1.95v-8.57c0-1.23-.65-1.85-1.95-1.85h0Zm-.1,18.8h-8.38c-1.3,0-1.95,.68-1.95,2.04v45.59c0,1.36,.68,2.05,2.05,2.05h8.38c.71,0,1.22-.13,1.51-.39,.29-.26,.44-.81,.44-1.66v-45.59c0-1.36-.68-2.04-2.04-2.04h0Z"/></g><g><path d="M397.58,120.05c-1.08,0-1.55-.46-1.55-1.55v-31.17c0-2.21-.49-3.82-1.46-4.79-.97-.97-2.58-1.46-4.79-1.46h-3.51c-4.79,0-7.22,2.66-7.22,7.9v29.51c0,1.08-.46,1.55-1.54,1.55h-8.28c-1.08,0-1.54-.46-1.54-1.55v-45.59c0-1.08,.46-1.54,1.54-1.54h8.28c1.08,0,1.54,.46,1.54,1.54v3.71h1.23l.13-.31c1.36-3.33,4.33-4.95,9.08-4.95h3.12c9.95,0,14.79,5.03,14.79,15.38v31.75c0,1.08-.49,1.55-1.64,1.55h-8.18Z"/><path d="M392.61,71.87c9.62,0,14.29,4.87,14.29,14.88v31.75c0,.71-.17,1.05-1.14,1.05h-8.18c-.81,0-1.05-.23-1.05-1.05v-31.17c0-2.38-.53-4.06-1.61-5.14-1.08-1.08-2.76-1.61-5.14-1.61h-3.51c-3.52,0-7.72,1.46-7.72,8.4v29.51c0,.81-.23,1.05-1.04,1.05h-8.28c-.81,0-1.04-.23-1.04-1.05v-45.59c0-.81,.23-1.04,1.04-1.04h8.28c.81,0,1.04,.23,1.04,1.04v4.21h2.06l.25-.62c1.27-3.12,4.09-4.64,8.62-4.64h3.12m0-1h-3.12c-4.94,0-8.12,1.75-9.55,5.26h-.39v-3.21c0-1.36-.68-2.04-2.04-2.04h-8.28c-1.36,0-2.04,.68-2.04,2.04v45.59c0,1.36,.68,2.05,2.04,2.05h8.28c1.36,0,2.04-.68,2.04-2.05v-29.51c0-4.93,2.24-7.4,6.72-7.4h3.51c2.08,0,3.56,.44,4.43,1.31,.88,.88,1.31,2.35,1.31,4.43v31.17c0,1.36,.68,2.05,2.05,2.05h8.18c1.43,0,2.14-.68,2.14-2.05v-31.75c0-10.58-5.1-15.88-15.29-15.88h0Z"/></g><g><path d="M447.45,120.05c-1.08,0-1.55-.46-1.55-1.55V59.96c0-1.08,.46-1.54,1.55-1.54h31.85c1.01,0,1.45,.46,1.45,1.54v6.62c0,1.08-.43,1.55-1.45,1.55h-20.36c-1.06,0-1.67,.57-1.67,1.57v12.66c0,1,.61,1.57,1.67,1.57h16.66c1.08,0,1.55,.46,1.55,1.55v6.62c0,1.08-.46,1.55-1.55,1.55h-16.66c-1.06,0-1.67,.57-1.67,1.57v13.54c0,1,.61,1.57,1.67,1.57h20.36c1.01,0,1.45,.46,1.45,1.55v6.62c0,1.08-.43,1.55-1.45,1.55h-31.85Z"/><path d="M479.3,58.92c.66,0,.95,.15,.95,1.04v6.62c0,.89-.29,1.05-.95,1.05h-20.36c-1.34,0-2.17,.79-2.17,2.07v12.66c0,1.28,.83,2.07,2.17,2.07h16.66c.81,0,1.05,.23,1.05,1.05v6.62c0,.81-.23,1.05-1.05,1.05h-16.66c-1.34,0-2.17,.79-2.17,2.07v13.54c0,1.28,.83,2.07,2.17,2.07h20.36c.66,0,.95,.15,.95,1.05v6.62c0,.89-.29,1.05-.95,1.05h-31.85c-.81,0-1.05-.23-1.05-1.05V59.96c0-.81,.23-1.04,1.05-1.04h31.85m0-1h-31.85c-1.36,0-2.05,.68-2.05,2.04v58.54c0,1.36,.68,2.05,2.05,2.05h31.85c1.3,0,1.95-.68,1.95-2.05v-6.62c0-1.36-.65-2.05-1.95-2.05h-20.36c-.78,0-1.17-.36-1.17-1.07v-13.54c0-.71,.39-1.07,1.17-1.07h16.66c1.36,0,2.05-.68,2.05-2.05v-6.62c0-1.36-.68-2.05-2.05-2.05h-16.66c-.78,0-1.17-.36-1.17-1.07v-12.66c0-.71,.39-1.07,1.17-1.07h20.36c1.3,0,1.95-.68,1.95-2.05v-6.62c0-1.36-.65-2.04-1.95-2.04h0Z"/></g><g><path d="M523.72,120.05c-1.08,0-1.55-.46-1.55-1.55v-3.71h-1.23l-.13,.31c-.66,1.63-1.86,2.87-3.55,3.68-1.74,.84-3.6,1.27-5.53,1.27h-3.99c-4.83,0-8.53-1.32-10.98-3.93-2.46-2.62-3.71-6.47-3.71-11.44v-17.92c0-4.98,1.25-8.83,3.71-11.44,2.45-2.61,6.15-3.93,10.98-3.93h3.99c1.93,0,3.79,.43,5.53,1.26,1.69,.82,2.89,2.06,3.55,3.68l.13,.31h1.23v-22.51c0-1.08,.46-1.55,1.55-1.55h8.28c1.08,0,1.55,.46,1.55,1.55V118.5c0,1.08-.46,1.55-1.55,1.55h-8.28Zm-13.15-38.96c-2.21,0-3.81,.49-4.74,1.47-.95,.98-1.41,2.55-1.41,4.78v16.75c0,2.23,.46,3.8,1.41,4.78,.94,.97,2.53,1.47,4.74,1.47h4.38c4.79,0,7.22-2.66,7.22-7.9v-13.44c0-5.24-2.43-7.9-7.22-7.9h-4.38Z"/><path d="M532,53.07c.81,0,1.05,.23,1.05,1.05V118.5c0,.81-.23,1.05-1.05,1.05h-8.28c-.81,0-1.05-.23-1.05-1.05v-4.21h-2.06l-.25,.62c-.62,1.53-1.71,2.65-3.31,3.42-1.67,.81-3.46,1.22-5.31,1.22h-3.99c-4.69,0-8.26-1.27-10.62-3.78-2.37-2.52-3.58-6.26-3.58-11.1v-17.92c0-4.84,1.2-8.58,3.58-11.1,2.36-2.51,5.93-3.78,10.62-3.78h3.99c1.85,0,3.64,.41,5.31,1.22,1.6,.77,2.68,1.89,3.31,3.42l.25,.62h2.06v-23.01c0-.81,.23-1.05,1.05-1.05h8.28m-21.43,57.76h4.38c3.52,0,7.72-1.46,7.72-8.4v-13.44c0-6.94-4.2-8.4-7.72-8.4h-4.38c-2.39,0-4.05,.53-5.1,1.62-1.04,1.08-1.55,2.76-1.55,5.13v16.75c0,2.37,.51,4.05,1.55,5.12,1.05,1.09,2.72,1.62,5.1,1.62m21.43-58.76h-8.28c-1.36,0-2.05,.68-2.05,2.05v22.01h-.39c-.71-1.75-1.98-3.07-3.8-3.95-1.82-.88-3.73-1.31-5.75-1.31h-3.99c-5,0-8.78,1.36-11.35,4.09-2.57,2.73-3.85,6.66-3.85,11.79v17.92c0,5.13,1.28,9.06,3.85,11.79,2.56,2.73,6.35,4.09,11.35,4.09h3.99c2.01,0,3.93-.44,5.75-1.32,1.82-.88,3.08-2.19,3.8-3.94h.39v3.21c0,1.36,.68,2.05,2.05,2.05h8.28c1.36,0,2.05-.68,2.05-2.05V54.12c0-1.36-.68-2.05-2.05-2.05h0Zm-21.43,57.76c-2.08,0-3.54-.44-4.38-1.32-.84-.88-1.27-2.35-1.27-4.43v-16.75c0-2.08,.42-3.56,1.27-4.43,.84-.88,2.3-1.31,4.38-1.31h4.38c4.48,0,6.72,2.47,6.72,7.4v13.44c0,4.94-2.24,7.4-6.72,7.4h-4.38Z"/></g><g><path d="M549.73,120.05c-1.08,0-1.55-.46-1.55-1.55v-45.59c0-1.08,.43-1.54,1.45-1.54h8.38c1.08,0,1.54,.46,1.54,1.54v45.59c0,.97-.21,1.23-.27,1.28-.11,.1-.41,.26-1.18,.26h-8.38Zm-.1-56.11c-1.03,0-1.45-.42-1.45-1.45v-8.47c0-1.03,.42-1.45,1.45-1.45h8.47c1.03,0,1.45,.39,1.45,1.35v8.57c0,1.03-.42,1.45-1.45,1.45h-8.47Z"/><path d="M558.1,53.07c.85,0,.95,.27,.95,.85v8.57c0,.74-.2,.95-.95,.95h-8.47c-.74,0-.95-.2-.95-.95v-8.47c0-.74,.2-.95,.95-.95h8.47m-.1,18.8c.81,0,1.04,.23,1.04,1.04v45.59c0,.68-.11,.91-.11,.91-.03,.02-.22,.13-.84,.13h-8.38c-.81,0-1.05-.23-1.05-1.05v-45.59c0-.9,.28-1.04,.95-1.04h8.38m.1-19.8h-8.47c-1.3,0-1.95,.65-1.95,1.95v8.47c0,1.3,.65,1.95,1.95,1.95h8.47c1.3,0,1.95-.65,1.95-1.95v-8.57c0-1.23-.65-1.85-1.95-1.85h0Zm-.1,18.8h-8.38c-1.3,0-1.95,.68-1.95,2.04v45.59c0,1.36,.68,2.05,2.05,2.05h8.38c.71,0,1.22-.13,1.51-.39,.29-.26,.44-.81,.44-1.66v-45.59c0-1.36-.68-2.04-2.04-2.04h0Z"/></g><g><path d="M592,120.05c-4.97,0-8.87-1.33-11.58-3.95-2.71-2.62-4.08-6.43-4.08-11.33v-22.11c0-.98-.59-1.57-1.57-1.57h-3.9c-.85,0-1.17-.17-1.28-.26-.08-.07-.27-.33-.27-1.18v-6.72c0-1.08,.46-1.54,1.55-1.54h3.9c.98,0,1.57-.59,1.57-1.57v-9.25c0-1.08,.49-1.55,1.64-1.55h8.18c1.08,0,1.55,.46,1.55,1.55v9.25c0,1,.61,1.57,1.67,1.57h7.6c1.08,0,1.54,.46,1.54,1.54v6.72c0,.57-.1,.97-.29,1.16-.11,.11-.42,.29-1.25,.29h-7.6c-1.06,0-1.67,.57-1.67,1.57v21.53c0,2.15,.51,3.73,1.52,4.69,1,.97,2.62,1.46,4.83,1.46h3.9c1.08,0,1.55,.46,1.55,1.55v6.72c0,.57-.1,.96-.29,1.16-.11,.11-.42,.29-1.25,.29h-5.94Z"/><path d="M586.16,59.5c.81,0,1.05,.23,1.05,1.05v9.25c0,1.28,.83,2.07,2.17,2.07h7.6c.81,0,1.04,.23,1.04,1.04v6.72c0,.64-.14,.8-.14,.8,0,0-.18,.15-.9,.15h-7.6c-1.34,0-2.17,.79-2.17,2.07v21.53c0,2.29,.56,3.99,1.67,5.05,1.11,1.07,2.81,1.6,5.17,1.6h3.9c.81,0,1.05,.23,1.05,1.05v6.72c0,.54-.11,.76-.14,.8,0,0-.18,.15-.9,.15h-5.94c-4.84,0-8.62-1.28-11.24-3.81-2.61-2.52-3.93-6.21-3.93-10.97v-22.11c0-1.26-.81-2.07-2.07-2.07h-3.9c-.69,0-.91-.12-.92-.12h0s-.12-.22-.12-.83v-6.72c0-.81,.23-1.04,1.05-1.04h3.9c1.26,0,2.07-.81,2.07-2.07v-9.25c0-.71,.17-1.05,1.14-1.05h8.18m0-1h-8.18c-1.43,0-2.14,.68-2.14,2.05v9.25c0,.72-.36,1.07-1.07,1.07h-3.9c-1.36,0-2.05,.68-2.05,2.04v6.72c0,.78,.15,1.3,.44,1.56,.29,.26,.83,.39,1.61,.39h3.9c.71,0,1.07,.36,1.07,1.07v22.11c0,5.07,1.41,8.96,4.24,11.69s6.8,4.09,11.93,4.09h5.94c.78,0,1.32-.15,1.61-.44s.44-.79,.44-1.51v-6.72c0-1.36-.68-2.05-2.05-2.05h-3.9c-2.08,0-3.57-.44-4.48-1.32-.91-.88-1.36-2.32-1.36-4.33v-21.53c0-.71,.39-1.07,1.17-1.07h7.6c.78,0,1.31-.15,1.61-.44,.29-.29,.44-.79,.44-1.51v-6.72c0-1.36-.68-2.04-2.04-2.04h-7.6c-.78,0-1.17-.36-1.17-1.07v-9.25c0-1.36-.68-2.05-2.05-2.05h0Z"/></g><g><path d="M613.04,120.05c-1.08,0-1.55-.46-1.55-1.55v-45.59c0-1.08,.43-1.54,1.45-1.54h8.38c1.08,0,1.54,.46,1.54,1.54v45.59c0,.97-.21,1.23-.27,1.28-.11,.1-.41,.26-1.18,.26h-8.38Zm-.1-56.11c-1.03,0-1.45-.42-1.45-1.45v-8.47c0-1.03,.42-1.45,1.45-1.45h8.47c1.03,0,1.45,.39,1.45,1.35v8.57c0,1.03-.42,1.45-1.45,1.45h-8.47Z"/><path d="M621.42,53.07c.85,0,.95,.27,.95,.85v8.57c0,.74-.2,.95-.95,.95h-8.47c-.74,0-.95-.2-.95-.95v-8.47c0-.74,.2-.95,.95-.95h8.47m-.1,18.8c.81,0,1.04,.23,1.04,1.04v45.59c0,.68-.11,.91-.11,.91-.03,.02-.22,.13-.84,.13h-8.38c-.81,0-1.05-.23-1.05-1.05v-45.59c0-.9,.28-1.04,.95-1.04h8.38m.1-19.8h-8.47c-1.3,0-1.95,.65-1.95,1.95v8.47c0,1.3,.65,1.95,1.95,1.95h8.47c1.3,0,1.95-.65,1.95-1.95v-8.57c0-1.23-.65-1.85-1.95-1.85h0Zm-.1,18.8h-8.38c-1.3,0-1.95,.68-1.95,2.04v45.59c0,1.36,.68,2.05,2.05,2.05h8.38c.71,0,1.22-.13,1.51-.39,.29-.26,.44-.81,.44-1.66v-45.59c0-1.36-.68-2.04-2.04-2.04h0Z"/></g><g><path d="M652.1,120.05c-4.97,0-8.85-1.33-11.53-3.95-2.68-2.62-4.04-6.46-4.04-11.43v-17.92c0-4.97,1.36-8.81,4.04-11.43,2.68-2.62,6.56-3.95,11.53-3.95h8.67c4.91,0,8.77,1.34,11.49,4,2.71,2.65,4.09,6.48,4.09,11.38v17.92c0,4.9-1.38,8.73-4.09,11.38-2.71,2.65-6.58,4-11.49,4h-8.67Zm1.85-39.06c-2.24,0-3.79,.46-4.74,1.41-.95,.95-1.41,2.5-1.41,4.74v17.14c0,2.24,.46,3.79,1.41,4.74,.95,.95,2.5,1.41,4.74,1.41h4.97c2.23,0,3.8-.46,4.78-1.41,.97-.94,1.47-2.53,1.47-4.74v-17.14c0-2.21-.49-3.8-1.47-4.74-.97-.93-2.58-1.41-4.78-1.41h-4.97Z"/><path d="M660.77,71.87c4.77,0,8.52,1.3,11.14,3.85,2.61,2.55,3.94,6.26,3.94,11.02v17.92c0,4.76-1.32,8.47-3.94,11.02-2.62,2.56-6.36,3.85-11.14,3.85h-8.67c-4.84,0-8.6-1.28-11.19-3.81-2.58-2.52-3.89-6.24-3.89-11.07v-17.92c0-4.83,1.31-8.55,3.89-11.07,2.59-2.53,6.35-3.81,11.18-3.81h8.67m-6.82,39.06h4.97c2.37,0,4.05-.51,5.13-1.55,1.09-1.05,1.62-2.72,1.62-5.1v-17.14c0-2.38-.53-4.05-1.62-5.1-1.08-1.04-2.76-1.55-5.13-1.55h-4.97c-2.38,0-4.04,.51-5.09,1.56-1.05,1.05-1.56,2.71-1.56,5.09v17.14c0,2.38,.51,4.04,1.56,5.09,1.05,1.05,2.71,1.56,5.09,1.56m6.82-40.06h-8.67c-5.13,0-9.09,1.36-11.88,4.09-2.79,2.73-4.19,6.66-4.19,11.79v17.92c0,5.13,1.4,9.06,4.19,11.79,2.79,2.73,6.75,4.09,11.88,4.09h8.67c5.07,0,9.01-1.38,11.83-4.14,2.83-2.76,4.24-6.67,4.24-11.74v-17.92c0-5.06-1.41-8.98-4.24-11.74-2.82-2.76-6.77-4.14-11.83-4.14h0Zm-6.82,39.06c-2.08,0-3.54-.42-4.38-1.27-.84-.84-1.27-2.3-1.27-4.38v-17.14c0-2.08,.42-3.54,1.27-4.38,.84-.84,2.3-1.27,4.38-1.27h4.97c2.08,0,3.56,.42,4.43,1.27,.88,.84,1.31,2.31,1.31,4.38v17.14c0,2.08-.44,3.54-1.31,4.38-.88,.84-2.35,1.27-4.43,1.27h-4.97Z"/></g><g><path d="M719.41,120.05c-1.08,0-1.55-.46-1.55-1.55v-31.17c0-2.21-.49-3.82-1.46-4.79s-2.58-1.46-4.79-1.46h-3.51c-4.79,0-7.22,2.66-7.22,7.9v29.51c0,1.08-.46,1.55-1.55,1.55h-8.28c-1.08,0-1.55-.46-1.55-1.55v-45.59c0-1.08,.46-1.54,1.55-1.54h8.28c1.08,0,1.55,.46,1.55,1.54v3.71h1.23l.13-.31c1.36-3.33,4.33-4.95,9.08-4.95h3.12c9.95,0,14.79,5.03,14.79,15.38v31.75c0,1.08-.49,1.55-1.64,1.55h-8.18Z"/><path d="M714.44,71.87c9.62,0,14.29,4.87,14.29,14.88v31.75c0,.71-.17,1.05-1.14,1.05h-8.18c-.81,0-1.05-.23-1.05-1.05v-31.17c0-2.38-.53-4.06-1.61-5.14-1.08-1.08-2.76-1.61-5.14-1.61h-3.51c-3.52,0-7.72,1.46-7.72,8.4v29.51c0,.81-.23,1.05-1.05,1.05h-8.28c-.81,0-1.05-.23-1.05-1.05v-45.59c0-.81,.23-1.04,1.05-1.04h8.28c.81,0,1.05,.23,1.05,1.04v4.21h2.06l.25-.62c1.27-3.12,4.09-4.64,8.62-4.64h3.12m0-1h-3.12c-4.94,0-8.12,1.75-9.55,5.26h-.39v-3.21c0-1.36-.68-2.04-2.05-2.04h-8.28c-1.36,0-2.05,.68-2.05,2.04v45.59c0,1.36,.68,2.05,2.05,2.05h8.28c1.36,0,2.05-.68,2.05-2.05v-29.51c0-4.93,2.24-7.4,6.72-7.4h3.51c2.08,0,3.56,.44,4.43,1.31s1.32,2.35,1.32,4.43v31.17c0,1.36,.68,2.05,2.05,2.05h8.18c1.43,0,2.14-.68,2.14-2.05v-31.75c0-10.58-5.1-15.88-15.29-15.88h0Z"/></g></g><g><g><path d="M128.31,181.22c7.49-4.17,37.58-22.39,52.1-53.3v45.5c0,4.63-3.76,8.39-8.39,8.39l-43.71-.59Z"/><path d="M179.91,130.1v43.32c0,4.35-3.54,7.89-7.89,7.89h-.11l-41.76-.56c9.31-5.41,35.77-22.64,49.76-50.65m1-4.49c-16.17,36.91-54.54,56.09-54.54,56.09l45.52,.61s.08,0,.12,0c4.9,0,8.89-3.98,8.89-8.89v-47.81h0Z"/></g><g><path d="M180.2,54.1c-4.17-7.49-22.39-37.58-53.3-52.1h45.5c2.26,0,4.38,.89,5.97,2.5,1.59,1.61,2.45,3.75,2.42,6.01l-.58,43.59Z"/><path d="M172.39,2.5c2.13,0,4.12,.83,5.62,2.35s2.3,3.52,2.27,5.65l-.56,41.76c-5.41-9.31-22.64-35.77-50.65-49.76h43.32m0-1h-47.81c36.91,16.17,56.09,54.54,56.09,54.54l.61-45.52c.07-4.96-3.93-9.01-8.89-9.01h0Z"/></g><g><path d="M143.86,114.32c-3.63-4.19-17.94-19.49-36.04-22.74,22.08-5.05,32.96-18.9,36.04-23.5v46.24Z"/><path d="M143.36,69.67v43.31c-4.51-5.07-17.08-17.68-33.26-21.43,19.04-5.01,29.34-16.51,33.26-21.87m1-3.33s-10.75,19.99-39.45,25.33c22.36,2.34,39.45,24.02,39.45,24.02v-49.35h0Z"/></g><g><path d="M84.3,181.99c-3.35-.45-21.38-3.29-39.71-14.19C25.97,156.72,3.2,134.79,.54,93.24c-.37-8.94,2.23-31.28,14.69-51.76C30.12,17.03,54.44,2.88,85.59,.54V41.29c-3.86,.77-32.97,7.52-39.99,38.14-2.17,9.47-1.75,19.33,1.21,28.49,8.72,26.97,33.89,32.6,37.5,33.27v40.8Z"/><path d="M85.09,1.08V40.88c-2.34,.48-9.16,2.16-16.7,6.63-8.44,5-19.33,14.58-23.28,31.81-2.19,9.56-1.77,19.51,1.22,28.76,4.94,15.27,15.09,23.62,22.73,27.93,6.71,3.78,12.59,5.19,14.74,5.61v39.8c-4.44-.65-21.58-3.7-38.99-14.06-11.78-7.02-21.39-15.97-28.54-26.6C7.33,127.46,2.21,111.46,1.04,93.23c-.37-8.9,2.22-31.11,14.62-51.49,6.78-11.14,15.52-20.18,25.96-26.88C53.83,7.04,68.45,2.4,85.09,1.08m1-1.08C11.54,5.26-.78,73.57,.04,93.27c5.19,80.9,84.77,89.29,84.77,89.29v-41.78s-28.16-4.04-37.52-33.01c-2.95-9.11-3.34-18.89-1.2-28.23,7.49-32.69,40-37.83,40-37.83V0h0Z"/></g></g></g>
</svg>
