<svg width="180" height="68" viewBox="0 0 180 68" fill="none" xmlns="http://www.w3.org/2000/svg">
<rect width="180" height="68" fill="#333365"/>
<path d="M44.3222 24.5516C44.3222 29.2447 43.3936 33.736 41.3268 37.9664C40.2137 40.2302 38.7986 42.3325 37.1203 44.2158C34.4291 47.2602 31.2207 49.6312 27.6397 51.5214C27.2899 51.7071 27.0279 51.7082 26.6633 51.5214C23.644 49.9343 20.8901 47.9825 18.4747 45.5739C16.2865 43.4065 14.4684 40.8951 13.0924 38.1396C12.9055 37.7636 13.1129 37.7773 13.3727 37.7784C16.1939 37.7777 19.0006 37.3749 21.7082 36.5821C22.4738 36.3645 23.2281 36.1082 23.9869 35.8609C24.4051 35.7242 24.4427 35.747 24.3789 36.1959C24.2843 36.9 24.1384 37.5973 24.1384 38.3128C24.1384 39.0454 24.5292 39.5205 25.2641 39.5399C26.4878 39.5718 27.7138 39.5741 28.9363 39.5399C29.6871 39.5183 30.1235 38.9007 30.0255 38.1567C29.8273 36.663 29.6529 35.167 29.4558 33.6733C29.4125 33.3486 29.5515 33.1834 29.8056 33.0251C31.6371 31.8981 33.3211 30.5474 34.8188 29.0043C37.1078 26.6207 38.8886 23.9273 39.7932 20.7097C39.9854 20.0546 40.1226 19.3847 40.2034 18.7067C40.2387 18.3889 40.3333 18.374 40.6056 18.4982C41.631 18.9642 42.6564 19.4097 43.6955 19.8484C43.8021 19.8812 43.896 19.9463 43.9641 20.0346C44.0323 20.123 44.0714 20.2303 44.0761 20.3417C44.2461 21.7385 44.3283 23.1446 44.3222 24.5516V24.5516Z" fill="#4BA565"/>
<path d="M30.5027 30.6213C31.1054 29.5845 31.2513 28.5705 30.9733 27.5017C30.5175 25.7619 28.7492 24.4619 27.0243 24.5816C25.0429 24.7194 23.523 26.0969 23.2712 27.9894C23.0775 29.45 23.5811 30.6464 24.6874 31.5898C24.8766 31.7504 24.9518 31.8974 24.9153 32.1287C24.8367 32.6482 24.749 33.1666 24.6977 33.6896C24.6949 33.7732 24.6649 33.8536 24.6123 33.9186C24.5596 33.9836 24.4872 34.0296 24.406 34.0496C21.9223 35.0432 19.3211 35.713 16.6664 36.0424C15.3247 36.1988 13.9746 36.2707 12.6239 36.2577C12.3197 36.2577 12.1682 36.154 12.0611 35.8703C10.7574 32.4946 10.063 28.9143 10.0102 25.2959C9.97048 23.6163 10.0466 21.936 10.2381 20.2668C10.2402 20.1703 10.2722 20.0767 10.3298 19.9992C10.3873 19.9216 10.4676 19.8638 10.5594 19.8339C11.7865 19.3041 13.0079 18.7617 14.2281 18.2171C14.3154 18.1714 14.4114 18.1452 14.5097 18.14C14.6081 18.1349 14.7063 18.1511 14.7978 18.1875C18.7024 19.6538 22.8451 18.3014 25.4098 15.2958C25.4888 15.1913 25.5929 15.1084 25.7123 15.0547C25.8318 15.0009 25.9628 14.9781 26.0934 14.9882C26.834 15.0098 27.5746 15.0041 28.314 14.9882C28.4255 14.9812 28.5369 15.002 28.6383 15.0488C28.7397 15.0955 28.828 15.1667 28.8951 15.2559C30.4401 17.055 32.3633 18.2126 34.7058 18.6375C35.8692 18.8503 37.0636 18.8259 38.2173 18.5658C38.681 18.4621 38.6822 18.4666 38.6081 18.9076C38.1091 21.8995 36.6974 24.4471 34.7844 26.7475C33.6939 28.0442 32.4635 29.2164 31.1157 30.243C30.9562 30.3706 30.8081 30.5313 30.5027 30.6213Z" fill="white"/>
<path d="M116.832 31.6068C116.832 29.1583 116.84 26.7076 116.823 24.2602C116.823 23.8774 116.937 23.7783 117.308 23.7817C119.458 23.7976 121.609 23.7418 123.758 23.8045C125.478 23.8546 127.124 24.2169 128.341 25.6081C129.227 26.6232 129.734 27.8127 129.966 29.1253C130.389 31.5179 130.205 33.8604 129.283 36.1175C128.412 38.2367 126.794 39.2986 124.517 39.3715C122.04 39.4501 119.562 39.3841 117.085 39.4103C116.81 39.4103 116.836 39.2564 116.836 39.0821C116.836 37.8007 116.836 36.5193 116.836 35.2379C116.834 34.0279 116.833 32.8176 116.832 31.6068ZM120.117 31.6205C120.117 33.1859 120.125 34.7514 120.11 36.3169C120.11 36.6166 120.191 36.7043 120.489 36.6963C121.47 36.6724 122.455 36.7077 123.434 36.661C124.594 36.6063 125.628 36.2052 126.098 35.0659C127.01 32.8658 127.124 30.6133 126.212 28.3801C125.777 27.3148 124.951 26.6939 123.763 26.5959C122.681 26.507 121.598 26.5822 120.52 26.5367C120.158 26.5207 120.108 26.6506 120.111 26.9685C120.125 28.5169 120.117 30.0687 120.117 31.6205V31.6205Z" fill="white"/>
<path d="M63.249 28.9655C62.8935 28.9655 62.5358 28.9416 62.1814 28.9724C61.8271 29.0031 61.622 28.8869 61.4978 28.5166C61.107 27.3511 60.3357 26.5547 59.0881 26.3519C57.2275 26.0522 55.6028 26.68 54.8725 28.5759C54.0749 30.6461 54.0669 32.7505 54.9203 34.8184C55.9526 37.325 58.9559 37.472 60.5032 36.1857C61.0478 35.7299 61.3315 35.1044 61.5457 34.4516C61.6425 34.1565 61.7929 34.0539 62.1005 34.0608C62.8833 34.0801 63.6672 34.0892 64.4499 34.0608C64.8772 34.0437 64.9056 34.1975 64.8236 34.5587C64.0192 38.1305 61.0933 40.1837 57.4292 39.7461C56.3149 39.6128 55.2427 39.3645 54.2788 38.7629C52.6427 37.7375 51.7723 36.1822 51.3518 34.3672C50.8072 32.0373 50.9269 29.7255 51.8406 27.4969C52.866 25.0051 54.8371 23.786 57.4383 23.4978C59.1086 23.3132 60.7094 23.5832 62.1586 24.4731C63.7196 25.4313 64.6117 26.8452 64.8851 28.6545C64.9204 28.8824 64.8407 28.969 64.6197 28.9678C64.1605 28.9633 63.7048 28.9655 63.249 28.9655Z" fill="#4BA565"/>
<path d="M88.643 38.1194C88.643 39.8285 88.643 41.4646 88.643 43.0984C88.643 44.0213 88.7387 43.8846 87.8454 43.896C87.2621 43.9017 86.6776 43.8755 86.0965 43.9039C85.7091 43.9233 85.5781 43.8071 85.5826 43.406C85.602 41.713 85.5895 40.0199 85.5895 38.3268C85.5895 35.0264 85.5895 31.7253 85.5895 28.4235C85.5895 27.8629 85.5895 27.8629 86.1489 27.8629C86.804 27.8629 87.4592 27.872 88.1132 27.8629C88.4219 27.8549 88.5518 27.937 88.5119 28.2776C88.4893 28.6259 88.4866 28.9751 88.5039 29.3236C88.6851 29.3167 88.717 29.2096 88.7649 29.1299C89.6023 27.7627 90.8955 27.3958 92.3755 27.5576C94.6417 27.8071 96.0499 29.1105 96.5626 31.4314C96.9833 33.2462 96.8548 35.1451 96.1935 36.8866C95.5258 38.6504 94.0116 39.6781 92.1328 39.7567C90.7462 39.8148 89.616 39.4149 88.8047 38.2493C88.7555 38.2005 88.7013 38.1569 88.643 38.1194ZM91.0629 30.1348C90.0763 30.0653 89.3642 30.5905 88.9631 31.5248C88.6795 32.1726 88.5267 32.87 88.5134 33.577C88.5001 34.2841 88.6266 34.9867 88.8856 35.6447C89.2616 36.644 90.1287 37.1772 91.1883 37.1567C91.6764 37.1472 92.1493 36.9855 92.5411 36.6942C92.9329 36.403 93.2239 35.9966 93.3736 35.5319C93.7795 34.3651 93.7903 33.0972 93.4043 31.9236C93.0169 30.7079 92.265 30.1462 91.0629 30.1348V30.1348Z" fill="#4BA565"/>
<path d="M137.611 38.1648C136.949 38.7892 136.316 39.3566 135.458 39.5833C134.563 39.8317 133.618 39.8317 132.723 39.5833C130.947 39.0854 130.331 37.4846 130.445 35.9374C130.466 35.6108 130.521 35.2874 130.609 34.9723C130.94 33.833 131.721 33.1494 132.837 32.8224C133.824 32.5296 134.852 32.4703 135.858 32.2892C136.164 32.2333 136.474 32.1912 136.781 32.1365C137.176 32.067 137.488 31.8813 137.552 31.4529C137.619 31.004 137.503 30.6006 137.131 30.3135C136.545 29.8578 134.952 29.8578 134.362 30.3215C134.067 30.5494 133.929 30.882 133.851 31.233C133.797 31.4825 133.679 31.5748 133.414 31.5668C132.66 31.5463 131.904 31.5474 131.15 31.5668C130.833 31.5736 130.726 31.5053 130.785 31.1566C131.059 29.5365 131.946 28.4039 133.502 27.8992C135.145 27.3648 136.824 27.3968 138.494 27.8514C139.795 28.2057 140.374 29.132 140.545 30.3933C140.598 30.831 140.62 31.2718 140.612 31.7126C140.612 33.7058 140.612 35.6977 140.612 37.6886C140.612 38.158 140.698 38.6001 141.158 38.8632C141.337 38.9647 141.301 39.1321 141.272 39.2803C141.241 39.4603 141.076 39.4101 140.959 39.4113C140.047 39.4113 139.136 39.4044 138.224 39.4193C137.973 39.4193 137.857 39.3178 137.808 39.0968C137.745 38.7994 137.682 38.5066 137.611 38.1648ZM137.568 33.8125C136.702 34.258 135.81 34.3628 134.941 34.5519C134.604 34.6081 134.283 34.7364 134.001 34.9279C133.478 35.3164 133.376 35.8588 133.481 36.4501C133.518 36.7059 133.631 36.9449 133.804 37.1367C133.977 37.3286 134.204 37.4648 134.454 37.5279C135.624 37.8697 137.107 37.0574 137.443 35.8872C137.627 35.2207 137.543 34.5439 137.562 33.8102L137.568 33.8125Z" fill="white"/>
<path d="M103.621 33.6302C103.598 32.026 103.995 30.5403 105.086 29.336C106.418 27.8651 108.163 27.4059 110.085 27.5529C111.741 27.6782 113.191 28.2866 114.198 29.6721C115.205 31.0576 115.484 32.6242 115.365 34.2876C115.318 34.9125 115.187 35.5283 114.977 36.1186C114.407 37.741 113.33 38.8667 111.692 39.3999C109.942 39.9696 108.2 39.907 106.548 39.0661C104.658 38.1045 103.858 36.416 103.626 34.3947C103.61 34.1402 103.608 33.885 103.621 33.6302V33.6302ZM112.242 33.6496C112.252 33.4507 112.252 33.2514 112.242 33.0526C112.059 31.3356 111.387 30.1586 109.63 30.1085C108.662 30.0811 107.814 30.366 107.323 31.2684C106.525 32.7438 106.509 34.2751 107.198 35.7802C107.686 36.8489 108.67 37.2887 109.932 37.1474C110.958 37.0335 111.766 36.3168 112.057 35.2538C112.204 34.7324 112.266 34.1908 112.242 33.6496V33.6496Z" fill="#4BA565"/>
<path d="M157.819 36.1959C158.115 35.1484 158.409 34.1006 158.702 33.0524C159.151 31.4368 159.601 29.8223 160.034 28.2022C160.107 27.9287 160.229 27.8535 160.504 27.8603C161.328 27.8797 162.156 27.8831 162.981 27.8603C163.322 27.8501 163.383 27.9173 163.263 28.2523C162.162 31.3605 161.081 34.4743 159.99 37.5848C159.5 38.9793 159.019 40.3773 158.502 41.7605C157.69 43.9367 156.101 44.381 153.863 44.021C153.663 43.988 153.58 43.9071 153.584 43.6849C153.599 43.0446 153.599 42.4042 153.584 41.7639C153.584 41.4985 153.68 41.4529 153.916 41.4973C154.112 41.5294 154.311 41.5428 154.511 41.5372C155.65 41.5304 156.334 40.5733 155.961 39.5114C154.658 35.7652 153.361 32.0179 152.044 28.2762C151.915 27.9082 151.989 27.8524 152.346 27.8615C153.214 27.882 154.082 27.8774 154.95 27.8615C155.229 27.8558 155.339 27.9492 155.416 28.2181C156.181 30.8819 156.961 33.54 157.737 36.2004L157.819 36.1959Z" fill="white"/>
<path d="M79.2185 36.1571C79.4338 35.396 79.6503 34.6349 79.8622 33.8784C80.3886 31.9871 80.9135 30.095 81.4368 28.2021C81.5029 27.9583 81.6237 27.8603 81.8857 27.8603C82.6548 27.874 83.4238 27.8603 84.1929 27.8603C84.7626 27.8603 84.7626 27.8717 84.5814 28.3924C84.03 29.9624 83.4801 31.534 82.9316 33.1071C81.9989 35.7792 81.065 38.4526 80.13 41.127C79.965 41.5985 79.7619 42.0557 79.5227 42.4942C78.953 43.5436 78.0518 44.0449 76.8851 44.095C76.3737 44.1328 75.8596 44.1129 75.3526 44.0358C75.0815 43.9868 74.9607 43.882 74.9698 43.5903C74.9892 43.0354 74.9869 42.4794 74.9698 41.9246C74.9596 41.6033 75.0837 41.4939 75.3971 41.5235C76.0203 41.5816 76.6207 41.5565 77.0867 41.0347C77.4627 40.6143 77.5835 40.1642 77.3932 39.6196C76.0822 35.8666 74.7757 32.1154 73.4738 28.3662C73.3018 27.8729 73.3086 27.8637 73.8156 27.8626C74.6417 27.8626 75.4677 27.8729 76.2937 27.8558C76.5923 27.8489 76.713 27.9617 76.7928 28.2431C77.4764 30.6517 78.1839 33.0558 78.8835 35.4598C78.9507 35.6877 79.0293 35.9156 79.1023 36.1435L79.2185 36.1571Z" fill="#4BA565"/>
<path d="M98.5795 33.982C98.5795 32.8301 98.5669 31.6771 98.5875 30.5252C98.5943 30.1446 98.4655 30.0387 98.0964 30.0432C96.957 30.0557 96.957 30.0432 96.957 28.9039C96.957 27.8648 96.957 27.8648 98.0178 27.8636C98.5749 27.8636 98.5761 27.8636 98.5761 27.2939C98.5761 26.5978 98.5875 25.8994 98.5761 25.2032C98.5692 24.8831 98.6524 24.7384 99.0056 24.7475C99.745 24.7714 100.487 24.7634 101.225 24.7475C101.526 24.7475 101.616 24.8557 101.608 25.1531C101.587 25.9347 101.608 26.7174 101.591 27.5002C101.585 27.7839 101.696 27.8716 101.968 27.8579C102.337 27.8386 102.707 27.8579 103.078 27.8499C103.344 27.8397 103.467 27.9206 103.457 28.21C103.44 28.7067 103.443 29.2058 103.457 29.7037C103.465 29.9692 103.343 30.0546 103.099 30.0455C102.772 30.0341 102.443 30.0683 102.118 30.0375C101.691 29.9988 101.581 30.1891 101.584 30.5821C101.596 32.2467 101.584 33.9113 101.591 35.5759C101.591 35.9177 101.61 36.2595 101.62 36.6014C101.633 37.0298 101.901 37.1995 102.282 37.2291C102.552 37.2493 102.823 37.2534 103.094 37.2417C103.339 37.2303 103.464 37.2998 103.457 37.5721C103.445 38.1121 103.447 38.6533 103.457 39.1934C103.457 39.4338 103.35 39.5238 103.126 39.5352C102.187 39.566 101.246 39.6081 100.316 39.4418C99.1959 39.2412 98.6068 38.5371 98.5886 37.3966C98.5704 36.2561 98.5886 35.1179 98.5886 33.9786L98.5795 33.982Z" fill="#4BA565"/>
<path d="M150.901 31.5565C150.901 34.0323 150.894 36.5093 150.909 38.9851C150.909 39.3269 150.814 39.426 150.478 39.4158C149.767 39.3919 149.054 39.3884 148.343 39.4158C147.968 39.4317 147.842 39.344 147.845 38.9373C147.865 36.2028 147.856 33.4683 147.856 30.7396C147.856 28.5907 147.856 26.4419 147.856 24.2931C147.856 23.9433 147.876 23.8032 148.33 23.8054C149.066 23.8111 149.811 23.8282 150.543 23.7838C150.857 23.7644 150.914 23.8806 150.912 24.1689C150.902 26.6311 150.912 29.0932 150.912 31.5554L150.901 31.5565Z" fill="white"/>
<path d="M69.2566 29.5217C69.636 29.1024 69.9539 28.6728 70.3618 28.3174C70.9618 27.7787 71.7469 27.4929 72.5528 27.5198C72.8877 27.5278 73.0677 27.6417 73.0518 28.0314C73.0233 28.756 73.0233 29.4829 73.0518 30.2075C73.0666 30.5961 72.9322 30.6929 72.5607 30.6701C71.7529 30.6223 70.9725 30.7203 70.282 31.2182C69.7454 31.6067 69.4936 32.1296 69.4343 32.7734C69.2817 34.4209 69.3956 36.0775 69.3614 37.7227C69.3534 38.1489 69.3477 38.5773 69.3614 39.0034C69.3717 39.3053 69.2475 39.3987 68.9558 39.393C68.23 39.3794 67.5031 39.3725 66.7785 39.393C66.4367 39.4033 66.3376 39.2791 66.3398 38.9476C66.3512 37.0107 66.3398 35.0737 66.3398 33.1368C66.3398 31.5281 66.3478 29.9204 66.333 28.3117C66.333 27.9698 66.4173 27.8286 66.7888 27.8434C67.4564 27.8684 68.1264 27.8662 68.7952 27.8434C69.1575 27.8308 69.2737 27.9733 69.2509 28.3185C69.2406 28.7252 69.2566 29.124 69.2566 29.5217Z" fill="#4BA565"/>
<path d="M142.585 33.6597C142.585 31.8527 142.592 30.0456 142.578 28.2386C142.578 27.939 142.656 27.8524 142.956 27.8604C143.738 27.882 144.522 27.8752 145.303 27.8604C145.547 27.8604 145.652 27.9002 145.652 28.1828C145.642 31.8113 145.642 35.4397 145.652 39.0682C145.652 39.3348 145.562 39.41 145.31 39.41C144.528 39.3975 143.745 39.3929 142.963 39.41C142.667 39.418 142.58 39.3371 142.583 39.0352C142.592 37.2453 142.585 35.453 142.585 33.6597Z" fill="white"/>
<path d="M165.96 25.8235C165.162 25.8228 164.382 25.5857 163.719 25.1421C163.056 24.6986 162.539 24.0684 162.234 23.3313C161.929 22.5941 161.849 21.783 162.004 21.0005C162.159 20.2179 162.543 19.4989 163.107 18.9343C163.671 18.3698 164.389 17.9849 165.172 17.8284C165.954 17.6719 166.765 17.7508 167.503 18.055C168.24 18.3592 168.871 18.8752 169.316 19.5378C169.76 20.2003 169.998 20.9798 170 21.7776C170.001 22.3086 169.897 22.8344 169.694 23.3251C169.491 23.8158 169.193 24.2618 168.818 24.6375C168.443 25.0132 167.998 25.3113 167.507 25.5148C167.017 25.7183 166.491 25.8232 165.96 25.8235V25.8235ZM165.917 25.2014C166.817 25.2094 167.684 24.8625 168.331 24.2358C168.978 23.6091 169.351 22.753 169.371 21.8528C169.398 19.9763 167.897 18.3994 166.053 18.3675C165.605 18.3586 165.158 18.4381 164.74 18.6016C164.322 18.765 163.94 19.0093 163.617 19.3203C162.963 19.9485 162.585 20.8107 162.567 21.7172C162.549 22.6238 162.892 23.5004 163.52 24.1542C164.148 24.808 165.01 25.1855 165.917 25.2037V25.2014Z" fill="white"/>
<path d="M144.058 26.5172C143.66 26.5172 143.26 26.5046 142.864 26.5172C142.636 26.5274 142.577 26.4454 142.58 26.2255C142.592 25.4724 142.589 24.7193 142.58 23.9673C142.58 23.7394 142.636 23.6255 142.89 23.6255C143.714 23.6369 144.538 23.6369 145.363 23.6255C145.59 23.6255 145.653 23.6904 145.65 23.9149C145.636 24.668 145.634 25.4211 145.65 26.1742C145.65 26.4511 145.536 26.516 145.293 26.5069C144.881 26.4967 144.468 26.5069 144.057 26.5069L144.058 26.5172Z" fill="white"/>
<path d="M149.902 52.0652C150.6 51.4191 151.075 51.4488 151.671 52.1119C151.814 51.9204 152.003 51.769 152.221 51.6721C152.791 51.4624 153.347 51.7108 153.502 52.2953C153.687 52.9937 153.561 53.7115 153.586 54.4202C153.593 54.6219 153.426 54.5706 153.307 54.582C153.159 54.5957 153.063 54.566 153.066 54.3826C153.074 53.9132 153.066 53.4426 153.066 52.9732C153.059 52.3591 152.832 52.0253 152.436 52.0275C152.015 52.0275 151.778 52.3785 151.776 52.9937C151.776 53.4358 151.769 53.8767 151.776 54.3177C151.782 54.5239 151.701 54.5877 151.501 54.5877C151.302 54.5877 151.224 54.5193 151.229 54.3154C151.24 53.8171 151.24 53.3192 151.229 52.8217C151.22 52.3181 151.001 52.0241 150.645 52.0241C150.288 52.0241 149.97 52.3659 149.951 52.8092C149.931 53.2524 149.957 53.691 149.939 54.1319C149.932 54.3051 150.084 54.5752 149.693 54.5877C149.302 54.6002 149.427 54.3359 149.424 54.1525C149.414 53.4552 149.411 52.7579 149.424 52.0606C149.424 51.933 149.26 51.7097 149.57 51.663C149.862 51.6185 149.923 51.7723 149.902 52.0652Z" fill="white"/>
<path d="M97.9048 52.4C98.5531 52.7418 98.773 53.1224 98.6545 53.6864C98.5509 54.1797 98.1065 54.5227 97.4913 54.583C96.124 54.7175 96.124 54.7175 96.124 53.3662C96.124 52.5413 96.1309 51.7153 96.124 50.8904C96.124 50.6625 96.1912 50.5702 96.4248 50.5429C96.7343 50.4956 97.0482 50.4845 97.3602 50.5098C97.8558 50.5645 98.331 50.691 98.4916 51.2504C98.6523 51.8098 98.3629 52.1448 97.9048 52.4ZM96.6846 53.4323C96.6846 54.272 96.6903 54.2766 97.3933 54.1717C97.8889 54.0988 98.1669 53.7809 98.1179 53.3468C98.0632 52.8683 97.6622 52.6188 96.9785 52.6461C96.3963 52.6712 96.8099 53.1258 96.6835 53.348C96.6743 53.3719 96.6846 53.4061 96.6846 53.4323ZM96.6766 51.59C96.7529 51.8395 96.4681 52.2736 97.0834 52.2337C97.6724 52.1892 97.9948 51.9887 97.988 51.5501C97.9812 51.1114 97.6838 50.9428 97.1107 50.8984C96.4806 50.8573 96.7472 51.3131 96.6766 51.5922V51.59Z" fill="white"/>
<path d="M78.2726 52.1129C78.3984 51.9801 78.5352 51.8581 78.6816 51.7483C79.3413 51.3313 80.1172 51.7392 80.1844 52.5675C80.2334 53.1611 80.1935 53.7616 80.2061 54.3586C80.2061 54.5648 80.1069 54.5865 79.944 54.5865C79.7811 54.5865 79.6854 54.5523 79.6888 54.3586C79.699 53.8322 79.7082 53.3047 79.6888 52.7806C79.674 52.4798 79.5908 52.1836 79.249 52.0651C79.1406 52.0268 79.0232 52.0222 78.9122 52.0519C78.8012 52.0816 78.7017 52.1442 78.6269 52.2314C78.5503 52.3062 78.4905 52.3963 78.4512 52.4959C78.4119 52.5954 78.3941 52.7022 78.399 52.8091C78.4093 53.307 78.3922 53.8049 78.407 54.3016C78.407 54.5295 78.3318 54.5888 78.1119 54.5933C77.8681 54.5933 77.8772 54.4612 77.8841 54.2959C77.8841 53.8117 77.8943 53.3286 77.8841 52.8455C77.8704 52.3214 77.6277 52.0161 77.2631 52.032C76.8814 52.0491 76.6068 52.3921 76.5989 52.8797C76.5909 53.2922 76.608 53.7058 76.592 54.1171C76.584 54.3085 76.7287 54.6013 76.3163 54.591C75.9038 54.5808 76.0679 54.2789 76.0634 54.0977C76.0451 53.4141 76.0508 52.7305 76.0634 52.0469C76.0634 51.9136 75.9118 51.705 76.2263 51.664C76.5225 51.6287 76.5521 51.7996 76.543 52.0286C77.2961 51.4168 77.7553 51.4464 78.2726 52.1129Z" fill="white"/>
<path d="M88.7761 50.4698C89.8562 50.4766 90.5991 51.3095 90.5991 52.5104C90.5991 53.7637 89.8141 54.6501 88.7055 54.6489C87.639 54.6489 86.8688 53.7659 86.8825 52.5537C86.8962 51.3414 87.6778 50.4618 88.7761 50.4698ZM87.4636 52.5776C87.4579 52.6766 87.4579 52.7759 87.4636 52.875C87.5319 53.505 87.9341 54.0417 88.4241 54.1624C88.6727 54.235 88.9386 54.2208 89.178 54.122C89.4175 54.0232 89.6161 53.8458 89.7411 53.619C90.1456 52.8943 90.1536 52.1458 89.7093 51.436C89.2649 50.7261 88.3067 50.7068 87.7997 51.3744C87.5486 51.7221 87.4295 52.1478 87.4636 52.5753V52.5776Z" fill="white"/>
<path d="M70.7096 52.5639C70.7096 53.1039 70.7096 53.6451 70.7096 54.1863C70.7096 54.372 70.7837 54.5828 70.4453 54.5885C70.0818 54.5942 70.1559 54.3606 70.1536 54.1635C70.1536 53.7659 70.1411 53.366 70.1536 52.9683C70.1616 52.7405 70.0864 52.6698 69.8631 52.6778C69.4221 52.6915 68.9801 52.6915 68.5403 52.6778C68.3021 52.6687 68.2144 52.737 68.2247 52.9854C68.2429 53.4252 68.2247 53.8673 68.2315 54.3082C68.2315 54.4996 68.1939 54.5919 67.9752 54.5874C67.7564 54.5828 67.6652 54.552 67.6675 54.3094C67.6782 53.1427 67.6782 51.976 67.6675 50.8092C67.6675 50.5814 67.745 50.5164 67.9649 50.5142C68.2144 50.5142 68.2383 50.6361 68.2326 50.8343C68.2235 51.2046 68.2395 51.5749 68.227 51.9441C68.2201 52.1423 68.2759 52.2198 68.4879 52.2141C68.9573 52.1993 69.4278 52.1993 69.8961 52.2141C70.1171 52.2221 70.157 52.1275 70.1513 51.9372C70.1411 51.5669 70.157 51.1966 70.1513 50.8275C70.1513 50.6201 70.1946 50.5142 70.4327 50.5142C70.6709 50.5142 70.7233 50.5996 70.7187 50.8172C70.7062 51.4006 70.7187 51.9839 70.7187 52.5673L70.7096 52.5639Z" fill="white"/>
<path d="M131.022 52.541C131.022 51.9713 131.031 51.4017 131.022 50.832C131.017 50.6041 131.072 50.4993 131.325 50.5073C131.865 50.5243 132.406 50.5187 132.947 50.5073C133.116 50.5073 133.209 50.5392 133.209 50.7351C133.209 50.9311 133.104 50.963 132.94 50.963C132.571 50.963 132.2 50.9687 131.831 50.963C131.642 50.963 131.564 50.9995 131.551 51.2171C131.495 52.2186 131.487 52.2186 132.486 52.2197H132.785C132.955 52.2197 133.127 52.1821 133.127 52.4601C133.12 52.7153 132.959 52.6743 132.808 52.6743C132.481 52.6743 132.153 52.6857 131.827 52.6743C131.624 52.6652 131.567 52.7313 131.557 52.9375C131.496 54.1372 131.491 54.1361 132.674 54.1373C132.831 54.1373 132.987 54.1373 133.144 54.1373C133.301 54.1373 133.33 54.225 133.33 54.3549C133.33 54.4848 133.303 54.5759 133.145 54.5759C132.505 54.5759 131.865 54.5702 131.225 54.5759C130.997 54.5759 131.03 54.4198 131.029 54.2854C131.029 53.702 131.029 53.1187 131.029 52.5365L131.022 52.541Z" fill="white"/>
<path d="M58.8327 52.0057C58.9831 51.8997 59.0674 51.8337 59.1586 51.7778C59.8262 51.3654 60.5748 51.6844 60.7229 52.4546C60.846 53.0869 60.7582 53.7296 60.7799 54.3676C60.7879 54.6217 60.6078 54.567 60.4574 54.5818C60.2615 54.6 60.2159 54.4998 60.2182 54.3277C60.2235 53.8446 60.2235 53.3615 60.2182 52.8785C60.2182 52.3407 59.9812 52.0376 59.5836 52.0296C59.1529 52.0217 58.8361 52.3771 58.8316 52.8819C58.8316 53.3501 58.8236 53.8196 58.8316 54.289C58.8316 54.5009 58.7814 54.5898 58.5467 54.5875C58.312 54.5852 58.263 54.4895 58.2642 54.281C58.2695 53.0596 58.2695 51.8378 58.2642 50.6157C58.2642 50.4049 58.3086 50.3172 58.5433 50.3103C58.8122 50.3035 58.8396 50.4243 58.8327 50.6419C58.8236 51.0748 58.8327 51.5078 58.8327 52.0057Z" fill="white"/>
<path d="M116.345 52.0275C116.573 51.8771 116.719 51.7267 116.928 51.6618C117.487 51.4852 118.024 51.7119 118.197 52.269C118.416 52.9743 118.277 53.7081 118.293 54.4338C118.293 54.6617 118.087 54.5637 117.963 54.5808C117.794 54.6036 117.735 54.5136 117.743 54.3529C117.743 53.8835 117.743 53.4145 117.743 52.9458C117.743 52.3408 117.506 52.0195 117.089 52.0286C116.634 52.0378 116.348 52.4103 116.347 52.9857C116.347 53.4118 116.347 53.8391 116.347 54.2652C116.347 54.4441 116.364 54.5945 116.095 54.5899C115.867 54.5899 115.81 54.5045 115.811 54.2903C115.819 53.0529 115.819 51.8163 115.811 50.5805C115.811 50.3777 115.866 50.3185 116.073 50.3128C116.301 50.3071 116.357 50.3902 116.35 50.6033C116.335 51.0556 116.345 51.5102 116.345 52.0275Z" fill="white"/>
<path d="M109.689 52.9367C109.976 52.5949 110.231 52.3374 110.44 52.0423C110.668 51.7142 110.947 51.5718 111.377 51.7062C111.088 52.0116 110.817 52.3124 110.53 52.5995C110.352 52.7761 110.315 52.914 110.495 53.1327C110.859 53.5793 111.189 54.0545 111.543 54.5318C111.114 54.664 110.848 54.5501 110.65 54.2037C110.487 53.9365 110.305 53.681 110.106 53.4392C110.047 53.3629 110.015 53.1851 109.87 53.2603C109.812 53.2884 109.763 53.3322 109.728 53.3867C109.693 53.4413 109.674 53.5044 109.673 53.5691C109.673 53.8254 109.663 54.0818 109.673 54.337C109.681 54.525 109.606 54.59 109.425 54.5808C109.265 54.5729 109.11 54.6013 109.11 54.353C109.116 53.0871 109.118 51.8202 109.11 50.5543C109.11 50.3185 109.233 50.3265 109.405 50.3128C109.601 50.3048 109.68 50.355 109.677 50.5714C109.664 51.2824 109.677 51.9934 109.677 52.7055C109.672 52.7567 109.679 52.8069 109.689 52.9367Z" fill="white"/>
<path d="M140.38 53.0904C140.38 54.0019 139.783 54.6536 138.935 54.6467C138.144 54.6467 137.561 54.0224 137.548 53.1656C137.532 52.2541 138.128 51.6035 138.981 51.6001C139.817 51.5978 140.374 52.1903 140.38 53.0904ZM138.095 53.0687C138.107 53.1952 138.109 53.324 138.132 53.4493C138.214 53.8857 138.538 54.2024 138.919 54.2286C139.301 54.2548 139.632 53.9893 139.776 53.545C139.835 53.3696 139.857 53.1841 139.842 52.9998C139.826 52.8155 139.774 52.6363 139.687 52.4729C139.629 52.3342 139.529 52.2165 139.402 52.1352C139.275 52.0538 139.127 52.0127 138.976 52.0171C138.827 52.0142 138.679 52.0535 138.55 52.1307C138.422 52.2079 138.317 52.3198 138.25 52.4535C138.151 52.6422 138.098 52.8513 138.095 53.0642V53.0687Z" fill="white"/>
<path d="M82.9453 53.2205C82.7322 53.2205 82.5192 53.2205 82.3061 53.2205C81.9142 53.2205 81.8709 53.2911 82.0156 53.6671C82.1603 54.0431 82.5921 54.271 83.1105 54.2231C83.2376 54.2101 83.3636 54.1884 83.4876 54.1582C83.6016 54.1297 83.7258 54.0351 83.7793 54.2471C83.826 54.4339 83.736 54.4943 83.5822 54.5479C82.9453 54.7655 82.1181 54.6082 81.7592 54.1901C81.3502 53.7161 81.3035 52.8753 81.6453 52.2669C81.7869 52.0014 82.0178 51.7944 82.2971 51.6825C82.5764 51.5705 82.8863 51.5608 83.172 51.655C83.6916 51.8271 84.0391 52.4161 83.989 53.0086C83.9741 53.1727 83.9183 53.2285 83.7554 53.2216C83.4854 53.2125 83.2153 53.2205 82.9453 53.2205ZM82.7584 52.8263C82.8863 52.8194 83.0145 52.8194 83.1424 52.8263C83.4592 52.8582 83.5138 52.7272 83.4033 52.4537C83.2928 52.1803 83.1333 52.0287 82.8439 51.998C82.6953 51.9738 82.5428 51.9972 82.4084 52.065C82.2739 52.1327 82.1643 52.2413 82.0953 52.3751C81.896 52.7169 81.9461 52.8194 82.3312 52.8251C82.4736 52.8286 82.616 52.8263 82.7584 52.8263V52.8263Z" fill="white"/>
<path d="M104.611 53.1134C104.598 53.9941 103.992 54.639 103.172 54.6447C102.374 54.6504 101.769 54.0032 101.767 53.1384C101.767 52.227 102.373 51.5923 103.229 51.5992C104.051 51.6094 104.623 52.2338 104.611 53.1134ZM104.053 53.1715C104.061 52.5289 103.764 52.072 103.317 52.0196C102.782 51.9581 102.373 52.3398 102.325 52.9448C102.271 53.6603 102.614 54.1981 103.146 54.2231C103.274 54.2327 103.403 54.2088 103.519 54.1536C103.636 54.0985 103.736 54.0141 103.81 53.9087C103.976 53.6995 104.062 53.4382 104.053 53.1715Z" fill="white"/>
<path d="M125.7 52.0398C125.805 51.9612 125.84 51.9384 125.871 51.911C126.222 51.6046 126.615 51.51 127.054 51.6832C127.518 51.8643 127.665 52.2654 127.69 52.7086C127.721 53.2475 127.69 53.7887 127.704 54.3276C127.704 54.5418 127.626 54.5931 127.43 54.5885C127.234 54.584 127.134 54.5657 127.14 54.339C127.152 53.8571 127.149 53.3728 127.14 52.8909C127.131 52.3212 126.885 52.0147 126.474 52.0307C126.064 52.0466 125.75 52.4124 125.744 52.9194C125.744 53.3888 125.733 53.8582 125.744 54.3265C125.75 54.5338 125.679 54.5908 125.476 54.5908C125.274 54.5908 125.204 54.5373 125.205 54.3288C125.211 53.5046 125.206 52.6812 125.19 51.8586C125.19 51.7276 125.222 51.69 125.343 51.6661C125.611 51.6091 125.692 51.7572 125.7 52.0398Z" fill="white"/>
<path d="M148.188 53.1076C148.172 54.019 147.539 54.673 146.707 54.6434C145.875 54.6138 145.317 53.9598 145.34 53.0996C145.367 52.1801 145.967 51.5785 146.837 51.6002C147.638 51.6207 148.207 52.2508 148.188 53.1076ZM145.886 53.0791C145.896 53.2198 145.915 53.3599 145.942 53.4983C146.056 53.9473 146.385 54.231 146.768 54.2275C147.129 54.2275 147.463 53.9495 147.581 53.5268C147.635 53.3498 147.654 53.1638 147.637 52.9794C147.619 52.795 147.565 52.6159 147.478 52.4524C147.416 52.3158 147.314 52.2008 147.186 52.1223C147.058 52.0437 146.909 52.0052 146.759 52.0115C146.609 52.0114 146.462 52.0542 146.335 52.1349C146.208 52.2157 146.107 52.331 146.044 52.4672C145.94 52.6544 145.886 52.865 145.886 53.0791V53.0791Z" fill="white"/>
<path d="M71.9844 53.0901C72.0083 52.1638 72.5996 51.5737 73.478 51.5953C74.2859 51.6158 74.8453 52.2698 74.8157 53.1505C74.786 54.0313 74.148 54.6693 73.3345 54.6408C72.521 54.6123 71.957 53.972 71.9844 53.0901ZM74.2562 53.0901C74.266 52.8619 74.2132 52.6354 74.1036 52.435C74.04 52.3108 73.9451 52.2055 73.8281 52.1294C73.7111 52.0534 73.5763 52.0094 73.437 52.0018C73.2977 51.9942 73.1589 52.0233 73.0343 52.0861C72.9098 52.1489 72.8039 52.2433 72.7272 52.3598C72.5839 52.5899 72.5103 52.8566 72.5156 53.1276C72.5209 53.3986 72.6047 53.6622 72.7568 53.8865C72.8295 53.9929 72.9276 54.0793 73.0422 54.1381C73.1567 54.1968 73.2842 54.226 73.4129 54.2229C73.5416 54.2198 73.6676 54.1847 73.7792 54.1205C73.8909 54.0564 73.9848 53.9654 74.0523 53.8558C74.1997 53.6288 74.2696 53.3602 74.2517 53.0901H74.2562Z" fill="white"/>
<path d="M63.5236 53.2203C63.3104 53.234 63.0965 53.234 62.8833 53.2203C62.4538 53.1633 62.4845 53.3753 62.5973 53.6601C62.7386 54.0178 63.0189 54.1808 63.3823 54.2298C63.6377 54.2588 63.8964 54.2296 64.1389 54.1443C64.271 54.0987 64.3223 54.1363 64.3553 54.248C64.3827 54.3426 64.418 54.4269 64.3029 54.5066C63.9759 54.7345 62.995 54.6844 62.5757 54.4052C62.1063 54.0919 61.8795 53.3673 62.0493 52.7178C62.2134 52.0855 62.6486 51.6685 63.2023 51.6138C64.0306 51.5329 64.6493 52.1766 64.5695 53.0186C64.5536 53.1907 64.4875 53.2351 64.3348 53.2317C64.0648 53.2169 63.7936 53.2203 63.5236 53.2203ZM63.2957 52.8238C63.3802 52.8329 63.4654 52.8329 63.5498 52.8238C63.7128 52.7896 63.9737 52.9503 64.0238 52.7201C64.0739 52.49 63.9429 52.2553 63.7264 52.1071C63.569 52.01 63.3815 51.9742 63.1993 52.0063C63.0172 52.0384 62.8533 52.1364 62.7386 52.2815C62.6395 52.4159 62.5107 52.5788 62.5814 52.7372C62.652 52.8956 62.8548 52.8033 62.9995 52.8204C63.0997 52.8268 63.2001 52.828 63.3003 52.8238H63.2957Z" fill="white"/>
<path d="M155.983 53.9039C156.211 53.2306 156.424 52.662 156.583 52.0809C156.688 51.689 156.888 51.5865 157.288 51.7129C156.821 52.8158 156.51 53.9689 155.937 55.0171C155.764 55.3634 155.477 55.6404 155.125 55.8021C155.028 55.8454 154.898 55.9411 154.843 55.7725C154.796 55.6403 154.682 55.4785 154.894 55.368C154.984 55.3246 155.069 55.2739 155.151 55.2164C155.639 54.8496 155.72 54.5476 155.499 53.9791C155.247 53.3456 154.988 52.7167 154.747 52.0798C154.703 51.959 154.506 51.7733 154.707 51.6924C154.909 51.6115 155.163 51.5979 155.277 51.9397C155.472 52.5697 155.727 53.1884 155.983 53.9039Z" fill="white"/>
<path d="M121.334 54.215C121 54.5237 120.693 54.6707 120.337 54.632C119.952 54.5967 119.662 54.4098 119.557 54.0144C119.453 53.6191 119.604 53.2898 119.924 53.0449C120.244 52.7999 120.631 52.7486 121.012 52.7315C121.281 52.719 121.277 52.5914 121.228 52.4057C121.129 52.032 120.713 51.8998 120.185 52.0548C120.059 52.0912 119.889 52.3248 119.791 52.0149C119.705 51.746 119.942 51.7437 120.083 51.697C121.14 51.3415 121.792 51.8109 121.803 52.9104C121.803 53.3377 121.814 53.7649 121.803 54.191C121.803 54.3209 121.933 54.5329 121.689 54.5716C121.49 54.6081 121.262 54.616 121.334 54.215ZM121.281 53.4676C121.281 53.2853 121.328 53.0984 121.027 53.1018C120.457 53.1018 120.084 53.3411 120.078 53.7296C120.078 54.0577 120.248 54.2321 120.566 54.2446C120.97 54.2606 121.27 53.9256 121.281 53.4676V53.4676Z" fill="white"/>
<path d="M55.5377 52.7771C55.5377 52.3077 55.5138 51.8371 55.5468 51.37C55.5696 51.0282 55.4329 50.9519 55.1366 50.9883C54.9543 51.01 54.7675 50.9883 54.5829 50.9883C54.3983 50.9883 54.3186 50.9564 54.3208 50.7604C54.3231 50.5645 54.3926 50.5121 54.5715 50.5132C55.4112 50.5189 56.2498 50.5212 57.0895 50.5132C57.2832 50.5132 57.3265 50.5907 57.3288 50.7673C57.3288 50.9644 57.2387 50.9872 57.0678 50.9951C56.7488 51.0111 56.3136 50.8345 56.1427 51.0772C55.9877 51.2982 56.0994 51.7084 56.0983 52.0354C56.0983 52.76 56.0983 53.485 56.0983 54.2104C56.0983 54.4155 56.1256 54.5955 55.8043 54.5875C55.5115 54.5784 55.5331 54.4166 55.5343 54.2264C55.5388 53.7444 55.5377 53.2613 55.5377 52.7771Z" fill="white"/>
<path d="M142.169 52.0032C142.299 51.8918 142.439 51.7923 142.587 51.7058C143.289 51.364 144.04 51.8004 144.098 52.598C144.14 53.179 144.105 53.7647 144.116 54.348C144.116 54.5428 144.036 54.5816 143.862 54.5839C143.688 54.5861 143.57 54.5542 143.577 54.3309C143.59 53.8752 143.584 53.4194 143.577 52.9637C143.572 52.361 143.344 52.0328 142.935 52.0249C142.479 52.0158 142.174 52.3917 142.168 52.9637C142.168 53.3761 142.168 53.7897 142.168 54.2022C142.168 54.3947 142.221 54.5918 141.89 54.5884C141.577 54.5884 141.637 54.397 141.636 54.2238C141.636 53.4696 141.636 52.7142 141.636 51.9599C141.636 51.8551 141.529 51.6853 141.75 51.6625C141.926 51.6443 142.092 51.6432 142.11 51.8904C142.121 51.9303 142.153 51.9656 142.169 52.0032Z" fill="white"/>
<path d="M93.165 50.6886C92.7092 50.6795 92.4153 51.0601 92.5087 51.5181C92.56 51.7699 92.7525 51.632 92.8813 51.6617C93.01 51.6913 93.2106 51.5864 93.2231 51.8553C93.2356 52.1242 93.0317 52.098 92.8744 52.0832C92.5657 52.0422 92.4962 52.1709 92.5064 52.4603C92.5281 53.071 92.5064 53.6829 92.5155 54.2936C92.5155 54.4975 92.4825 54.5932 92.241 54.5944C91.9994 54.5955 91.9755 54.4736 91.9778 54.281C91.9846 53.6692 91.9778 53.0585 91.9778 52.4467C91.9778 52.2598 92.0108 52.0616 91.7157 52.0843C91.5676 52.0957 91.5744 51.9795 91.5756 51.8793C91.5767 51.779 91.5585 51.6582 91.7123 51.6753C92.0541 51.7118 91.9766 51.4532 91.9971 51.2777C92.0837 50.5815 92.5976 50.1383 93.1969 50.2625C93.3268 50.2899 93.4886 50.299 93.4544 50.5166C93.4225 50.6841 93.4213 50.6978 93.165 50.6886Z" fill="white"/>
<path d="M107.367 51.5933C107.509 51.6074 107.649 51.6361 107.785 51.6787C107.942 51.722 107.926 51.812 107.899 51.9385C107.872 52.065 107.815 52.1424 107.671 52.0969C107.605 52.0711 107.537 52.0512 107.467 52.0376C107.048 51.9852 106.663 52.0536 106.412 52.4307C106.282 52.6186 106.207 52.8398 106.197 53.0685C106.187 53.2972 106.242 53.524 106.355 53.7227C106.557 54.1135 106.911 54.2229 107.326 54.1876C107.425 54.1812 107.524 54.169 107.621 54.1511C107.735 54.1295 107.849 54.0053 107.899 54.2423C107.944 54.4519 107.858 54.5305 107.685 54.5693C107.074 54.7037 106.473 54.7003 106.033 54.1887C105.593 53.6772 105.548 53.0494 105.827 52.4296C106.094 51.8371 106.605 51.5978 107.367 51.5933Z" fill="white"/>
<path d="M135.939 51.5933C136.02 51.6058 136.176 51.6206 136.326 51.6559C136.454 51.6867 136.62 51.6833 136.554 51.9168C136.488 52.1504 136.389 52.1117 136.213 52.0729C135.262 51.8644 134.617 52.5765 134.895 53.5097C135.058 54.0531 135.552 54.2947 136.241 54.1523C136.382 54.1226 136.486 54.0383 136.544 54.2662C136.602 54.4941 136.478 54.5248 136.341 54.5567C135.733 54.7037 135.134 54.7003 134.686 54.1967C134.238 53.6931 134.183 53.0573 134.458 52.4432C134.725 51.8473 135.229 51.6092 135.939 51.5933Z" fill="white"/>
<path d="M114.069 51.6025C114.111 51.6105 114.277 51.6447 114.444 51.6755C114.577 51.6994 114.653 51.7541 114.597 51.9033C114.553 52.0241 114.532 52.1585 114.344 52.0947C114.237 52.0581 114.126 52.0348 114.013 52.0252C113.355 51.9797 112.91 52.4012 112.896 53.0769C112.881 53.7947 113.296 54.2219 113.982 54.19C114.098 54.1925 114.213 54.1759 114.324 54.141C114.47 54.0829 114.542 54.0795 114.592 54.255C114.642 54.4304 114.586 54.4988 114.44 54.5364C113.852 54.6936 113.268 54.7096 112.801 54.2584C112.312 53.7867 112.242 53.1862 112.459 52.563C112.663 51.9637 113.117 51.6618 113.737 51.5957C113.799 51.5968 113.869 51.6025 114.069 51.6025Z" fill="white"/>
<path d="M99.9523 52.418C99.9523 51.8062 99.9603 51.1943 99.9523 50.5813C99.9523 50.3785 100.007 50.3102 100.214 50.3136C100.422 50.317 100.522 50.3489 100.52 50.5916C100.51 51.8297 100.51 53.0682 100.52 54.307C100.52 54.552 100.406 54.5794 100.208 54.5839C99.9797 54.5839 99.9512 54.4825 99.9535 54.2979C99.9558 53.6713 99.9512 53.0446 99.9523 52.418Z" fill="white"/>
<path d="M45.6495 15.0529C45.4456 15.0585 45.2426 15.0231 45.0526 14.9489C44.8625 14.8747 44.6893 14.7632 44.5431 14.621C44.3969 14.4787 44.2806 14.3086 44.2013 14.1206C44.1219 13.9327 44.0811 13.7307 44.0811 13.5267C44.0811 13.3227 44.1219 13.1208 44.2013 12.9329C44.2806 12.7449 44.3969 12.5748 44.5431 12.4325C44.6893 12.2903 44.8625 12.1787 45.0526 12.1045C45.2426 12.0304 45.4456 11.995 45.6495 12.0006C46.0591 11.9984 46.453 12.1581 46.7456 12.4449C47.0381 12.7316 47.2056 13.1223 47.2116 13.5319C47.2099 13.7346 47.1681 13.935 47.0885 14.1215C47.009 14.308 46.8932 14.4769 46.7479 14.6183C46.6026 14.7598 46.4308 14.871 46.2422 14.9456C46.0537 15.0202 45.8522 15.0567 45.6495 15.0529V15.0529ZM46.9712 13.5273C46.9658 13.1832 46.8264 12.8548 46.5825 12.612C46.3386 12.3691 46.0096 12.2311 45.6654 12.2273C45.3216 12.2308 44.9922 12.366 44.745 12.6051C44.4979 12.8442 44.3518 13.1689 44.337 13.5125C44.3382 13.6866 44.3736 13.8588 44.4414 14.0192C44.5092 14.1795 44.6079 14.325 44.7319 14.4472C44.8559 14.5694 45.0028 14.666 45.1642 14.7314C45.3255 14.7968 45.4982 14.8298 45.6723 14.8285C46.0165 14.8264 46.346 14.6885 46.5892 14.4449C46.8324 14.2013 46.9697 13.8715 46.9712 13.5273V13.5273Z" fill="white"/>
<path d="M123.77 53.1143C123.77 53.5131 123.77 53.9119 123.77 54.3095C123.77 54.5021 123.721 54.5887 123.506 54.5853C123.291 54.5818 123.201 54.5328 123.204 54.3004C123.216 53.5029 123.213 52.7053 123.204 51.9078C123.204 51.6799 123.311 51.6571 123.495 51.6582C123.678 51.6594 123.782 51.6958 123.773 51.9169C123.759 52.3179 123.77 52.7167 123.77 53.1143Z" fill="white"/>
<path d="M123.825 50.8619C123.788 51.0476 123.705 51.1787 123.494 51.1753C123.448 51.1808 123.401 51.1753 123.358 51.1591C123.314 51.143 123.275 51.1168 123.244 51.0826C123.213 51.0484 123.19 51.0072 123.178 50.9625C123.166 50.9178 123.164 50.8708 123.174 50.8255C123.173 50.7825 123.182 50.74 123.2 50.7009C123.218 50.6617 123.244 50.6269 123.276 50.5989C123.309 50.5708 123.347 50.5501 123.388 50.5383C123.43 50.5265 123.473 50.5238 123.516 50.5304C123.712 50.5406 123.81 50.6728 123.825 50.8619Z" fill="white"/>
<path d="M164.692 21.9642C164.692 21.3375 164.692 20.7109 164.692 20.0854C164.692 19.911 164.712 19.7732 164.928 19.7595C165.509 19.7242 166.093 19.6615 166.666 19.8256C167.169 19.968 167.464 20.295 167.525 20.8237C167.594 21.4116 167.397 21.8844 166.905 22.1111C166.621 22.2433 166.677 22.3504 166.803 22.5475C167.047 22.9303 167.283 23.3211 167.5 23.7211C167.563 23.835 167.794 23.9865 167.614 24.1039C167.568 24.1377 167.514 24.1614 167.458 24.1735C167.402 24.1855 167.343 24.1856 167.287 24.1738C167.231 24.162 167.177 24.1386 167.13 24.1049C167.084 24.0713 167.044 24.0283 167.015 23.9785C166.776 23.5923 166.532 23.2061 166.315 22.8062C166.141 22.4826 165.943 22.2604 165.526 22.306C165.312 22.3299 165.224 22.3766 165.231 22.6033C165.246 23.0158 165.231 23.4294 165.236 23.8418C165.236 24.0207 165.205 24.1472 164.99 24.1552C164.776 24.1631 164.694 24.0526 164.696 23.843C164.696 23.2163 164.692 22.5897 164.692 21.9642ZM165.229 21.0082C165.229 21.9095 165.229 21.9118 166.129 21.832C166.256 21.8243 166.382 21.8002 166.503 21.7602C166.628 21.7236 166.738 21.65 166.819 21.5493C166.901 21.4485 166.949 21.3254 166.959 21.1962C167.031 20.5855 166.767 20.2848 166.114 20.2449C165.229 20.1947 165.229 20.1947 165.229 21.0082Z" fill="white"/>
<path d="M46.3124 14.4467C45.9535 14.3703 45.9318 14.0832 45.7917 13.9043C45.7051 13.7904 45.6242 13.7061 45.4784 13.7482C45.3325 13.7904 45.3963 13.934 45.3849 14.0365C45.3781 14.1071 45.3849 14.1778 45.3849 14.2496C45.3849 14.3213 45.3701 14.4045 45.2858 14.4114C45.2015 14.4182 45.1787 14.3362 45.1719 14.2644C45.1719 13.8234 45.1719 13.3836 45.1719 12.9427C45.1719 12.9017 45.1719 12.8356 45.1992 12.8288C45.3331 12.7626 45.4813 12.7309 45.6305 12.7365C45.7797 12.742 45.9252 12.7847 46.0537 12.8607C46.2816 12.9872 46.3876 13.2822 46.2019 13.4383C45.819 13.7631 46.0879 13.9818 46.2383 14.2359C46.2683 14.3042 46.293 14.3746 46.3124 14.4467V14.4467ZM45.59 12.9427C45.3747 12.8926 45.3895 13.0703 45.3815 13.2538C45.3735 13.4372 45.4043 13.5956 45.6481 13.5614C45.8361 13.5386 46.0275 13.517 46.0412 13.2686C46.0583 12.9849 45.8543 12.9609 45.59 12.9427V12.9427Z" fill="white"/>
</svg>
