<svg width="180" height="68" viewBox="0 0 180 68" fill="none" xmlns="http://www.w3.org/2000/svg">
<path d="M10 34.7168C10 32.0422 10.0139 29.3675 10 26.6929C10 26.1871 10.0924 26 10.6536 26C15.929 26.0231 21.2051 26.0231 26.482 26C27.0686 26 27.1887 26.1871 27.1864 26.7299C27.168 32.0791 27.168 37.4284 27.1864 42.7776C27.1864 43.2881 27.0802 43.4705 26.5259 43.4705C21.2213 43.4474 15.9159 43.4474 10.6098 43.4705C10.097 43.4705 10 43.2904 10.0023 42.8261C10.0092 40.1238 10 37.4191 10 34.7168ZM20.3174 38.9412H23.0405C22.5948 38.7795 22.4469 38.4793 22.4492 38.0173C22.4677 35.8016 22.4677 33.5873 22.4492 31.3747C22.4492 30.9774 22.5509 30.7995 22.9828 30.8273C23.5671 30.8619 24.1376 30.9243 24.6204 31.2892C25.1031 31.6541 25.1424 32.2431 25.3271 32.8459C25.5281 32.3701 25.3895 31.9636 25.4495 31.5756C25.5766 30.7533 25.3364 30.4646 24.4171 30.4785C20.4675 30.5432 16.5156 30.5062 12.5661 30.5062H11.7069C12.4875 30.6078 12.5522 31.109 12.5453 31.7234C12.5268 33.7352 12.5453 35.7492 12.5453 37.761C12.5453 38.2991 12.5661 38.828 11.79 38.9158C13.9172 38.9735 15.9913 38.9666 18.0631 38.9805C18.4396 38.9805 18.5759 38.8511 18.562 38.4816C18.5412 37.9804 18.562 37.4769 18.562 36.9734C18.2618 37.5161 17.9523 37.9434 17.4488 38.2206C16.4556 38.7634 15.3839 38.6825 14.3214 38.5878C13.938 38.5578 13.8295 38.2645 13.8341 37.8949C13.8456 37.0334 13.8341 36.1696 13.8341 35.3081C13.8341 35.1233 13.7556 34.8461 14.0397 34.8184C14.7557 34.7768 15.4901 34.6567 16.1807 34.9016C16.7212 35.091 16.5503 35.6822 16.705 36.0911C16.7166 36.1188 16.7997 36.1188 16.8575 36.1326V32.7882C16.3055 34.3426 15.8343 34.5805 14.236 34.3542C13.8803 34.3033 13.8225 34.1394 13.8272 33.846C13.8272 33.07 13.8272 32.2939 13.8272 31.5179C13.8272 31.2315 13.9034 30.9635 14.206 30.9243C15.3262 30.7764 16.451 30.7441 17.5388 31.1183C18.3218 31.3885 18.0747 32.2269 18.4327 32.8806C18.6128 31.7119 19.1048 30.9635 20.2804 30.8504C20.8902 30.7926 21.1466 30.8966 21.1304 31.5987C21.0796 33.6104 21.105 35.6245 21.1166 37.6385C21.135 38.2483 21.2089 38.8881 20.3174 38.9412Z" fill="#E81F3D"/>
<path d="M130.021 31.9103C130.021 30.8294 130.035 29.8108 130.021 28.7922C130.021 28.3303 130.31 28.3881 130.594 28.3881C133.88 28.3881 137.167 28.4042 140.454 28.3881C140.867 28.3881 140.999 28.5058 140.987 28.9216C140.957 29.8455 141.017 30.7693 140.957 31.6794C140.923 32.206 141.114 32.3007 141.574 32.2961C143.466 32.273 145.357 32.2961 147.247 32.2591C147.741 32.2591 147.94 32.4069 148.085 32.8735C148.593 34.6034 149.141 36.3242 149.681 38.0657C150.095 37.9433 150.03 37.5899 150.104 37.3543C150.566 35.8761 151.006 34.3917 151.425 32.9012C151.55 32.4531 151.725 32.2545 152.243 32.2568C155.63 32.2799 159.018 32.2799 162.405 32.2568C162.906 32.2568 163.052 32.4115 163.036 32.892C163.006 33.8158 163.036 34.7397 162.948 35.6636C162.657 35.3425 162.669 34.9707 162.595 34.6081C162.301 33.1645 161.717 32.6194 160.25 32.5871C158.264 32.5432 158.654 32.3353 158.53 34.1738C158.483 34.487 158.483 34.8053 158.53 35.1185C158.617 35.4788 158.167 36.0285 158.839 36.1879C159.511 36.3473 160.329 35.9569 160.546 35.3564C160.614 35.1087 160.667 34.8573 160.705 34.6034C160.754 34.3956 160.613 34.1415 160.948 33.9105V38.9919C160.613 38.6939 160.738 38.3636 160.698 38.0865C160.634 37.6245 160.562 37.1626 160.206 36.83C160.007 36.6589 159.767 36.5429 159.509 36.4935C159.252 36.444 158.986 36.4629 158.737 36.5482C158.255 36.6822 158.539 37.188 158.527 37.5183C158.5 38.2643 158.585 39.0126 158.56 39.7587C158.539 40.3777 158.811 40.5786 159.382 40.5301C159.613 40.5093 159.844 40.5301 160.075 40.5301C161.999 40.5001 162.541 40.052 163.001 38.1788C163.073 37.8832 163.022 37.5414 163.447 37.0817C163.447 38.426 163.458 39.5647 163.447 40.7033C163.447 40.9343 163.186 40.8743 163.029 40.8743C160.52 40.8743 158.013 40.8743 155.506 40.8743C155.441 40.8743 155.374 40.7934 155.319 40.7565C155.323 40.6944 155.35 40.6359 155.395 40.593C155.44 40.5501 155.499 40.526 155.562 40.5255C156.89 40.3592 156.897 40.3569 156.899 39.0103C156.899 37.1418 156.878 35.2732 156.899 33.4024C156.899 32.8088 156.668 32.5409 156.097 32.5686C155.605 32.594 155.118 32.5132 154.622 32.527C153.612 32.5501 153.439 32.989 153.467 33.8551C153.515 35.7029 153.531 37.5368 153.467 39.3753C153.432 40.2737 153.732 40.6456 154.61 40.604C154.725 40.604 154.903 40.5486 154.977 40.805H150.381C150.404 40.738 150.416 40.6525 150.439 40.6502C151.901 40.4493 151.901 40.4493 151.901 38.9919V32.9867L151.739 32.9543C151.159 34.9199 150.584 36.8808 149.998 38.851C149.852 39.3452 149.755 39.8557 149.605 40.3476C149.545 40.5417 149.589 40.8373 149.258 40.8696C148.87 40.9089 148.875 40.574 148.796 40.3546C148.104 38.1119 147.411 35.8645 146.718 33.6172C146.646 33.3862 146.651 33.1137 146.422 32.9589C146.422 34.8205 146.385 36.6752 146.422 38.5276C146.464 40.1444 146.556 40.216 148.039 40.805H144.641C146.401 40.6641 146.131 39.3568 146.11 38.2066C146.085 36.7399 146.053 35.2732 145.99 33.8181C145.946 32.8088 145.223 32.3053 144.216 32.527C142.704 32.8619 142.697 32.8619 142.692 34.451C142.687 36.0401 142.736 37.6846 142.68 39.2806C142.648 40.1698 142.879 40.6664 143.856 40.5624C143.944 40.5415 144.036 40.5518 144.117 40.5914C144.198 40.631 144.262 40.6975 144.3 40.7796H139.479C139.553 40.6987 139.599 40.5994 139.659 40.5902C140.999 40.3777 141.024 40.38 141.045 39.0219C141.077 37.2688 141.029 35.5135 141.075 33.7604C141.098 32.8735 140.763 32.4854 139.876 32.5663C139.74 32.5634 139.605 32.5417 139.475 32.5016C139.555 32.1713 139.805 32.2291 139.973 32.2706C140.897 32.46 140.86 31.9242 140.754 31.2983C140.41 29.2519 139.177 28.4273 137.019 28.7784C136.705 28.8315 136.657 28.9701 136.657 29.2265C136.657 32.7349 136.657 36.2433 136.641 39.7517C136.641 40.2876 136.992 40.3661 137.359 40.4216C137.957 40.5139 138.562 40.5601 139.144 40.805H131.441C132.12 40.4123 132.668 40.5463 133.174 40.5301C133.899 40.507 134.213 40.1952 134.213 39.4723C134.204 36.1094 134.209 32.7457 134.229 29.3812C134.229 28.8685 134.044 28.7807 133.58 28.7761C131.589 28.7553 130.822 29.335 130.347 31.2475C130.296 31.4507 130.363 31.7186 130.021 31.9103Z" fill="#101723"/>
<path d="M41.3336 32.2849H44.8166C44.7034 32.4812 44.6826 32.5528 44.6549 32.5574C43.1305 32.7491 43.2437 32.5204 43.2229 34.2273C43.1998 36.2367 43.2044 36.2367 45.1907 36.2367C47.0685 36.2367 47.0685 36.2367 47.0501 34.3659C47.0339 32.8323 47.0339 32.8323 45.5187 32.4904C45.5996 32.2109 45.8352 32.3033 46.0153 32.3033C49.9418 32.3033 53.8891 32.3033 57.8248 32.271C58.5177 32.271 58.7071 32.4719 58.6632 33.1325C58.6078 33.9779 58.6493 34.8301 58.6493 35.7817C58.2105 35.4422 58.3144 35.068 58.2474 34.7516C57.9356 33.2272 57.3536 32.6729 55.7946 32.6082C53.5911 32.5251 54.0138 32.435 53.9468 34.3243C53.9097 34.5801 53.9097 34.8399 53.9468 35.0958C54.0461 35.4699 53.5842 36.0681 54.2956 36.2021C55.1571 36.3615 55.9123 35.9573 56.1041 35.2644C56.2195 34.8486 56.2496 34.4098 56.4805 34.001V38.9183C56.1041 38.9183 56.2496 38.6019 56.2311 38.4171C56.2288 37.9846 56.131 37.5579 55.9447 37.1675C55.5405 36.4746 54.8314 36.4377 54.1916 36.567C53.6766 36.671 53.9607 37.2322 53.9607 37.581C53.9214 38.3547 53.9745 39.1331 53.9607 39.9068C53.9607 40.3364 54.1154 40.5489 54.5635 40.5374C55.1109 40.5374 55.6583 40.5651 56.2034 40.5374C57.5291 40.4566 58.0858 40.0062 58.49 38.715C58.6332 38.2531 58.7394 37.7912 58.8664 37.3107C59.2683 37.4701 59.0974 37.7727 59.0974 37.9898C59.1228 38.7659 59.0974 39.5419 59.1205 40.318C59.1344 40.7268 59.0789 40.9393 58.5754 40.9323C55.9262 40.8977 53.2631 40.8977 50.6255 40.8931C49.1911 40.8931 47.7568 40.9069 46.3202 40.9093C46.0476 40.9093 45.7566 40.9901 45.4841 40.8169C45.5441 40.743 45.5695 40.6714 45.6088 40.6621C47.0085 40.3388 47.0293 40.3411 47.0223 38.9137C47.0223 38.2069 47.3619 37.2715 46.8884 36.8604C46.4888 36.5139 45.5742 36.7426 44.8882 36.7403C43.1998 36.7403 43.1975 36.7403 43.2137 38.4356C43.2137 39.0084 43.1397 39.6089 43.2829 40.1517C43.47 40.8723 44.3477 40.3064 44.8397 40.8446H39.9408C39.8969 40.6575 40.0286 40.6413 40.1279 40.6275C41.5022 40.4288 41.5137 40.4311 41.5137 39.0684C41.5137 37.3154 41.4629 35.56 41.5437 33.8093C41.5876 32.8854 41.2296 32.5713 40.3889 32.6082C40.2434 32.6082 40.0332 32.6937 39.9454 32.405C40.3704 32.2017 40.8416 32.405 41.2643 32.2733L41.2966 32.3287L41.3336 32.2849ZM52.2099 36.567C52.2099 35.5046 52.1937 34.4398 52.2099 33.3773C52.2099 32.9293 52.0783 32.6706 51.6071 32.6221C50.8385 32.5422 50.063 32.5546 49.2974 32.659C48.9371 32.7075 48.7431 32.8623 48.7454 33.2711C48.7608 35.4838 48.7608 37.6957 48.7454 39.9068C48.7454 40.3364 48.907 40.5004 49.339 40.5605C50.0527 40.6621 50.7502 40.5605 51.4569 40.5443C52.009 40.5305 52.2191 40.3133 52.2053 39.7544C52.1914 38.6919 52.2099 37.6295 52.2099 36.567Z" fill="#101723"/>
<path d="M62.356 28.633C62.5199 28.2404 62.8179 28.3905 63.0489 28.3905C66.5134 28.3905 69.9779 28.3905 73.4263 28.372C73.9714 28.372 74.1839 28.4875 74.1608 29.0811C74.11 30.3145 74.1608 31.5525 74.14 32.7905C74.14 32.9706 74.2324 33.2524 73.9391 33.2686C73.6457 33.2847 73.7081 32.9891 73.6827 32.8066C73.6019 32.3447 73.5487 31.8966 73.4356 31.4531C72.9736 29.6216 72.1906 28.9587 70.3036 28.8109C69.5876 28.7554 68.8624 28.8109 68.144 28.767C67.5435 28.7369 67.3126 29.021 67.3102 29.5846C67.3102 30.9358 67.2895 32.2869 67.2548 33.6381C67.2548 34.0285 67.4073 34.1001 67.7606 34.1232C69.6407 34.234 70.3844 33.615 70.6408 31.7372C70.6847 31.4254 70.5253 31.0443 70.8718 30.7903C71.1189 31.3238 71.1744 37.0703 70.9503 38.0566C70.6824 38.0912 70.6963 37.8903 70.6778 37.7263C70.6339 37.3267 70.6131 36.9248 70.5531 36.5275C70.2851 34.7306 69.292 34.4234 67.5505 34.4927C67.1694 34.5089 67.2617 34.786 67.2641 34.9916C67.2641 36.516 67.301 38.0404 67.2987 39.5648C67.2987 40.1376 67.5297 40.357 68.1071 40.4101C69.1407 40.5181 70.1838 40.4941 71.2113 40.3385C72.41 40.1445 73.26 39.5232 73.7058 38.3545C73.9721 37.5971 74.1798 36.8202 74.3271 36.031C74.3571 35.8993 74.3271 35.7076 74.5211 35.7007C74.7752 35.7007 74.7521 35.9109 74.7521 36.0748C74.7521 37.5415 74.7521 39.0082 74.7798 40.4633C74.7937 41.073 74.3872 40.9067 74.0869 40.9067C71.2344 40.9067 68.3796 40.8906 65.5249 40.8859C64.661 40.8859 63.7949 40.909 62.9311 40.9044C62.7324 40.9044 62.3998 41.0476 62.3952 40.6734C62.3952 40.3709 62.6909 40.4841 62.871 40.4633C64.8458 40.2323 64.7996 40.6942 64.825 38.3638C64.855 35.6314 64.8389 32.899 64.8112 30.1667C64.7996 28.8871 64.7095 28.8386 63.4253 28.767C63.0673 28.7531 62.6816 28.8871 62.356 28.633Z" fill="#101723"/>
<path d="M41.2086 31.8966C41.1832 31.698 41.1601 31.4994 41.1324 31.2984C40.8622 29.2959 39.2662 28.2565 37.3145 28.7901C36.9796 28.8825 37.0281 29.1019 37.0281 29.3167C37.0281 32.7951 37.0281 36.2735 37.005 39.7519C37.005 40.297 37.3006 40.4448 37.7371 40.5049C38.342 40.5579 38.9405 40.6677 39.5248 40.8328H32.0206L32.0068 40.715C32.5819 40.6688 33.1616 40.6157 33.7275 40.5765C34.2934 40.5372 34.5544 40.2392 34.5544 39.6849C34.5544 36.2065 34.5544 32.7281 34.5729 29.252C34.5729 28.8455 34.3904 28.8063 34.0509 28.7901C32.0091 28.6815 31.0483 29.3906 30.6441 31.3793C30.5933 31.631 30.5678 31.8874 30.5263 32.1669C30.3785 31.8366 30.2607 28.9887 30.3369 28.6584C30.4131 28.3281 30.6649 28.3928 30.8773 28.3928C34.191 28.3928 37.5054 28.3928 40.8206 28.3928C41.1462 28.3928 41.3749 28.4136 41.3518 28.8386C41.2964 29.841 41.4234 30.8503 41.2756 31.8412C41.2574 31.8347 41.2389 31.8293 41.2202 31.825L41.2086 31.8966Z" fill="#101723"/>
<path d="M104.938 40.8051C106.538 40.1353 106.554 40.1353 106.51 38.3406C106.485 36.9918 106.448 35.6406 106.406 34.2918C106.365 32.8898 106.316 32.8343 104.995 32.3077C106.048 32.3077 107.104 32.28 108.155 32.3239C108.448 32.3354 108.432 32.7212 108.506 32.9567C109.07 34.6983 109.624 36.4421 110.243 38.3776C110.827 36.4906 111.398 34.8022 111.86 33.0861C112.04 32.414 112.34 32.2338 112.989 32.2777C113.828 32.3331 114.675 32.2916 115.599 32.2916C115.495 32.481 115.479 32.5549 115.451 32.5572C114.005 32.7466 114.005 32.7443 114.005 34.2571C114.005 35.9524 114.047 37.65 113.987 39.3384C113.955 40.2023 114.167 40.6642 115.112 40.5533C115.197 40.5313 115.287 40.5401 115.367 40.5782C115.446 40.6162 115.51 40.681 115.546 40.7612H110.767C111.035 40.4009 111.428 40.5672 111.749 40.5487C112.16 40.5279 112.405 40.4124 112.402 39.9574C112.402 37.6477 112.402 35.338 112.229 32.9937C111.832 34.2617 111.425 35.5344 111.042 36.7955C110.689 37.9757 110.349 39.1629 110.021 40.3478C109.961 40.558 110.01 40.8305 109.677 40.8582C109.284 40.8905 109.31 40.5626 109.236 40.3385C108.511 38.075 107.787 35.8092 107.065 33.5411C107.001 33.3327 106.899 33.1377 106.764 32.966C106.751 35.0978 106.693 37.2112 106.873 39.32C106.933 40.0129 107.286 40.424 107.991 40.5233C108.169 40.5487 108.407 40.4494 108.531 40.8005L104.938 40.8051Z" fill="#101723"/>
<path d="M105.501 36.6315C105.523 37.3083 105.388 37.981 105.108 38.5974C104.827 39.2139 104.409 39.7575 103.885 40.1861C103.506 40.5108 103.066 40.7556 102.59 40.9056C102.114 41.0557 101.613 41.1079 101.117 41.0591C100.621 41.0103 100.139 40.8616 99.702 40.6218C99.2647 40.3821 98.8804 40.0563 98.5723 39.6641C97.0641 37.7863 97.2026 34.8807 98.9211 33.197C100.02 32.123 101.36 31.7396 102.813 32.3078C104.471 32.9545 105.268 34.3079 105.494 36.024C105.51 36.2262 105.512 36.4291 105.501 36.6315V36.6315ZM103.67 36.9202C103.642 35.636 103.594 34.6105 103.152 33.6404C102.843 32.9614 102.413 32.4048 101.559 32.4001C101.179 32.3805 100.804 32.4892 100.494 32.7088C100.184 32.9283 99.957 33.246 99.8496 33.6104C99.141 35.5739 99.1954 37.7319 100.002 39.6572C100.279 40.3247 100.806 40.7751 101.619 40.7404C102.432 40.7058 102.935 40.2508 103.254 39.5417C103.661 38.6248 103.642 37.6455 103.67 36.9202Z" fill="#101723"/>
<path d="M90.5346 36.5252C90.4029 39.0359 88.9016 40.849 86.9476 41.0361C84.3815 41.2832 82.2797 39.0082 82.5592 36.2804C82.6363 35.0904 83.1533 33.9715 84.0097 33.1415C85.0744 32.1368 86.3609 31.7788 87.7583 32.28C89.2989 32.832 90.1211 34.0446 90.4514 35.606C90.5002 35.9101 90.528 36.2173 90.5346 36.5252V36.5252ZM84.3977 36.3659C84.3442 37.43 84.5223 38.4931 84.9197 39.4817C85.2361 40.2023 85.7073 40.7589 86.5919 40.7404C87.4765 40.722 88.0539 40.2 88.3057 39.4077C88.9195 37.5055 88.8583 35.4497 88.1325 33.5873C87.8692 32.8944 87.3657 32.3701 86.5157 32.4001C85.6657 32.4302 85.146 32.9244 84.8365 33.6635C84.5067 34.5247 84.3573 35.4445 84.3977 36.3659V36.3659Z" fill="#101723"/>
<path d="M91.5667 34.1163C91.5667 35.8832 91.5297 37.6432 91.5875 39.4032C91.6082 40.0822 92.1256 40.4448 92.8093 40.5164C92.9964 40.5349 93.2112 40.4795 93.4052 40.7936H89.6127C89.61 40.7567 89.61 40.7196 89.6127 40.6827C91.2179 40.3825 91.2295 39.2068 91.181 37.9411C91.1278 36.8232 91.1486 35.7007 91.1348 34.5805C91.1163 32.8829 91.047 32.7951 89.4648 32.4856C90.3887 31.966 92.2041 32.3032 92.8185 33.1139L96.6411 38.1606C96.6411 36.6662 96.6619 35.3589 96.6411 34.0516C96.618 32.9152 95.8281 32.5803 94.8603 32.3748H98.505C97.0684 32.8737 96.9852 32.9453 96.976 34.5574C96.9621 36.5391 97.0106 38.5209 97.0245 40.5026C97.0245 40.6804 97.1515 40.9507 96.8859 41.02C96.6203 41.0892 96.5764 40.8213 96.4725 40.662C95.0866 38.5047 93.4398 36.5484 91.9247 34.4905C91.8069 34.3449 91.7491 34.1278 91.5667 34.1163Z" fill="#101723"/>
<path d="M169.263 32.144C169.263 33.1095 169.263 34.0772 169.263 35.0427C169.235 35.215 169.192 35.3843 169.133 35.5485C168.928 34.978 168.805 34.5807 168.641 34.1996C168.096 32.9409 167.101 32.278 165.907 32.3658C165.179 32.4166 164.629 32.7122 164.479 33.4883C164.329 34.2643 164.689 34.8464 165.436 35.105C166.182 35.3637 166.992 35.5046 167.766 35.7264C169.436 36.2022 170.15 37.1861 169.974 38.729C169.859 39.7522 169.39 40.5513 168.399 40.9024C167.408 41.2535 166.419 41.1703 165.569 40.4404C164.759 39.7475 164.745 39.7475 164.255 40.6991C164.195 40.8169 164.195 40.9855 164.024 41.0202C163.89 40.9139 163.923 40.7615 163.923 40.6229C163.923 39.5096 163.923 38.3964 163.923 37.1745C164.343 37.4055 164.299 37.745 164.398 38.0037C164.86 39.2348 165.417 40.4035 166.865 40.7615C167.847 41.004 168.734 40.579 168.981 39.7706C169.267 38.8306 168.87 37.9922 167.895 37.6295C167.011 37.2993 166.078 37.0891 165.202 36.7357C164.047 36.2738 163.558 35.4099 163.65 34.2297C163.677 33.7521 163.855 33.2953 164.158 32.9251C164.461 32.5549 164.873 32.2903 165.336 32.1694C166.26 31.9177 167.161 32.0124 167.84 32.6799C168.461 33.2873 168.715 33.0425 168.965 32.4212C169.004 32.3242 169.034 32.2202 169.066 32.1209L169.263 32.144Z" fill="#101723"/>
<path d="M127.372 37.2505C127.494 39.1768 126.577 40.618 125.018 40.9876C124.172 41.2069 123.275 41.1119 122.494 40.7203C121.712 40.3287 121.099 39.6671 120.768 38.858C120.05 37.0103 120.159 35.1903 121.341 33.5458C122.478 31.9613 124.33 31.668 125.924 32.7951C126.235 33.0261 126.344 32.9452 126.513 32.6773C126.653 32.4463 126.66 32.123 126.988 32.019C127.194 32.9683 127.157 35.4697 126.873 36.1765C126.767 35.673 126.69 35.2965 126.61 34.9223C126.495 34.2429 126.203 33.6056 125.764 33.0746C124.84 32.0444 123.224 32.1646 122.667 33.421C122.217 34.4031 121.984 35.4705 121.984 36.5507C121.984 37.6308 122.217 38.6983 122.667 39.6803C123.217 40.9275 124.977 41.1031 126.064 40.1422C126.757 39.5394 127 38.7287 127.125 37.8579C127.148 37.6547 126.958 37.3244 127.372 37.2505Z" fill="#101723"/>
<path d="M81.9192 32.0467V36.1695C81.4827 35.733 81.5727 35.2757 81.4827 34.9061C81.0692 33.2224 80.2885 32.3816 79.0806 32.4093C77.9789 32.4324 77.2767 33.2616 77.0296 34.9847C76.8334 36.2121 76.8679 37.4654 77.1312 38.6802C77.4384 39.999 78.0966 40.6665 79.1222 40.7058C80.4063 40.752 81.3949 40.0845 81.7691 38.858C81.9023 38.3253 82.0056 37.7855 82.0786 37.2412C82.5913 38.2713 81.7968 40.1353 80.6535 40.6896C78.45 41.7544 75.9579 40.6041 75.4082 38.2252C74.9647 36.3012 75.2072 34.5112 76.6716 33.0376C77.6578 32.0467 79.6742 31.6518 80.7436 32.7466C81.0946 33.1069 81.2632 32.936 81.4365 32.5964C81.5335 32.3978 81.6466 32.2061 81.7529 32.0098L81.9192 32.0467Z" fill="#101723"/>
<path d="M115.966 32.354H120.904C120.831 32.4718 120.807 32.5434 120.777 32.548C119.246 32.749 119.228 32.749 119.214 34.2803C119.198 35.9479 119.246 37.6155 119.214 39.2831C119.195 40.1654 119.445 40.6689 120.433 40.5396C120.579 40.5211 120.787 40.4726 120.884 40.7867H115.943C116.006 40.3825 116.35 40.5188 116.548 40.5419C117.336 40.6273 117.546 40.2393 117.544 39.5372C117.544 37.6686 117.574 35.8001 117.565 33.9315C117.565 32.6981 117.532 32.6981 116.255 32.5896C116.146 32.5724 116.038 32.5484 115.932 32.518L115.966 32.354Z" fill="#101723"/>
<path d="M41.2085 31.8967V31.8413C41.2273 31.8456 41.2458 31.851 41.2639 31.8575C41.2847 32.0007 41.3032 32.1416 41.324 32.2848L41.2755 32.3194C41.2755 32.3194 41.2408 32.264 41.2431 32.264C41.2385 32.1416 41.2224 32.0122 41.2085 31.8967Z" fill="#101723"/>
<path d="M20.3174 38.9413C21.2089 38.8836 21.135 38.2484 21.1304 37.6341C21.1304 35.62 21.0934 33.606 21.1443 31.5942C21.1604 30.9013 20.9133 30.7881 20.2943 30.8459C19.1094 30.959 18.6174 31.7074 18.4465 32.8761C18.0885 32.2225 18.3357 31.384 17.5527 31.1138C16.4648 30.7396 15.34 30.772 14.2198 30.9198C13.9172 30.959 13.8387 31.227 13.841 31.5134C13.841 32.2894 13.841 33.0655 13.841 33.8415C13.841 34.1349 13.8941 34.3035 14.2498 34.3497C15.8481 34.5806 16.3285 34.3497 16.8713 32.7837V36.1351C16.8136 36.1212 16.7304 36.1212 16.7189 36.0935C16.5641 35.6847 16.735 35.0934 16.1946 34.904C15.5017 34.6592 14.7695 34.7793 14.0535 34.8209C13.7694 34.8393 13.8479 35.1257 13.8479 35.3105C13.8479 36.172 13.8479 37.0359 13.8479 37.8974C13.8479 38.2623 13.9519 38.5556 14.3353 38.5903C15.3977 38.6757 16.4694 38.7658 17.4626 38.223C17.9661 37.9459 18.2756 37.5301 18.5759 36.9758C18.5759 37.4793 18.5597 37.9828 18.5759 38.484C18.5897 38.8536 18.4535 38.9852 18.077 38.9829C15.9983 38.9691 13.9311 38.9829 11.8039 38.9183C12.5799 38.8282 12.5591 38.2993 12.5591 37.7634C12.5591 35.7517 12.543 33.7376 12.5591 31.7259C12.5591 31.1115 12.5014 30.6103 11.7207 30.5087H12.5822C16.5318 30.5087 20.4837 30.5456 24.4333 30.4809C25.3571 30.4671 25.5881 30.7558 25.4657 31.578C25.4056 31.9661 25.5442 32.3726 25.3433 32.8484C25.1585 32.2455 25.1308 31.6496 24.6365 31.2916C24.1422 30.9336 23.5833 30.8759 22.9989 30.8297C22.567 30.802 22.4631 30.9798 22.4654 31.3771C22.4793 33.5898 22.4793 35.804 22.4654 38.0198C22.4654 38.4817 22.6109 38.7751 23.0567 38.9437L20.3174 38.9413Z" fill="white"/>
</svg>
